<svg xmlns="http://www.w3.org/2000/svg" viewBox="0 0 378.63 261.07"><defs><style>.cls-1,.cls-14{fill:#fff;}.cls-1,.cls-2,.cls-21,.cls-22,.cls-23,.cls-24,.cls-25,.cls-26,.cls-27,.cls-28,.cls-29,.cls-30,.cls-31,.cls-32,.cls-33,.cls-34,.cls-35,.cls-36,.cls-37{stroke:#231f20;stroke-miterlimit:10;}.cls-11,.cls-2{fill:none;}.cls-3{fill:#e70006;}.cls-4{fill:#1f00a2;}.cls-5{fill:#ff47ff;}.cls-6{fill:#a2002d;}.cls-7{fill:#00e7de;}.cls-8{fill:#2d00a2;}.cls-9{fill:#e22323;}.cls-10{fill:#5ed000;}.cls-12{fill:#8b5e00;}.cls-13{fill:#009444;}.cls-15{fill:#00b939;}.cls-16{fill:#ffec45;}.cls-17{fill:#5c0012;}.cls-18{fill:#a29b00;}.cls-19{fill:#0eff00;}.cls-20{fill:#006838;}.cls-21{fill:#ff7b5b;}.cls-22{fill:#004096;}.cls-23{fill:#0deeff;}.cls-24{fill:#910091;}.cls-25{fill:#fff3ba;}.cls-26{fill:#df8200;}.cls-27{fill:#46ad00;}.cls-28{fill:red;}.cls-29{fill:#ff8000;}.cls-30{fill:#ff8c8c;}.cls-31{fill:#a06400;}.cls-32{fill:#231f20;}.cls-33{fill:lime;}.cls-34{fill:blue;}.cls-35{fill:#ff0;}.cls-36{fill:#ff0080;}.cls-37{fill:#bb96ff;}.cls-38{fill:#1d1d1b;}</style></defs><title>colorbook</title><g id="bg"><path class="cls-1" d="M302.74,135.58l.14,40.16a7.67,7.67,0,0,1-15.34,0l-.14-40.16L295,108.76Z"/><path class="cls-2" d="M290.58,124.35s-.06,4.44,4.45,4.43,4.45-4.46,4.45-4.46L295,108.76Z"/><line class="cls-2" x1="298.07" y1="142.59" x2="298.24" y2="182.81"/><line class="cls-2" x1="292.24" y1="182.71" x2="292.07" y2="142.61"/><path class="cls-2" d="M287.4,135.57s-.1,7.7,7.73,7.68,7.71-7.73,7.71-7.73"/><path class="cls-1" d="M319.4,135.58l.14,40.16a7.67,7.67,0,1,1-15.33,0l-.14-40.16,7.57-26.87Z"/><line class="cls-2" x1="314.74" y1="142.59" x2="314.9" y2="182.81"/><line class="cls-2" x1="308.9" y1="182.71" x2="308.74" y2="142.61"/><path class="cls-2" d="M304.07,135.57s-.1,7.7,7.73,7.68,7.71-7.73,7.71-7.73"/><path class="cls-1" d="M336.07,135.58l.14,40.16a7.67,7.67,0,1,1-15.33,0l-.14-40.16,7.57-26.87Z"/><line class="cls-2" x1="331.4" y1="142.59" x2="331.57" y2="182.81"/><line class="cls-2" x1="325.57" y1="182.71" x2="325.4" y2="142.61"/><path class="cls-2" d="M320.74,135.57s-.1,7.7,7.72,7.68,7.72-7.73,7.72-7.73"/><path class="cls-1" d="M352.74,135.58l.14,40.16a7.67,7.67,0,1,1-15.33,0l-.15-40.16L345,108.76Z"/><path class="cls-2" d="M340.58,124.35s-.06,4.44,4.46,4.43,4.44-4.46,4.44-4.46L345,108.76Z"/><line class="cls-2" x1="348.07" y1="142.59" x2="348.24" y2="182.81"/><line class="cls-2" x1="342.24" y1="182.71" x2="342.07" y2="142.61"/><path class="cls-2" d="M337.4,135.57s-.1,7.7,7.73,7.68,7.71-7.73,7.71-7.73"/><path class="cls-1" d="M294.39,154l.14,40.16a7.67,7.67,0,1,1-15.33,0L279.06,154l7.57-26.87Z"/><path class="cls-2" d="M282.24,142.76s-.06,4.44,4.45,4.42,4.44-4.45,4.44-4.45l-4.5-15.56Z"/><line class="cls-2" x1="289.72" y1="161" x2="289.89" y2="201.22"/><line class="cls-2" x1="283.89" y1="201.12" x2="283.72" y2="161.02"/><path class="cls-2" d="M279.06,154s-.1,7.7,7.72,7.68,7.72-7.73,7.72-7.73"/><path class="cls-1" d="M311.06,154l.14,40.16a7.67,7.67,0,1,1-15.33,0L295.72,154l7.58-26.87Z"/><path class="cls-2" d="M298.9,142.76s-.06,4.44,4.46,4.42,4.44-4.45,4.44-4.45l-4.5-15.56Z"/><line class="cls-2" x1="306.39" y1="161" x2="306.56" y2="201.22"/><line class="cls-2" x1="300.56" y1="201.12" x2="300.39" y2="161.02"/><path class="cls-2" d="M295.72,154s-.1,7.7,7.73,7.68,7.71-7.73,7.71-7.73"/><path class="cls-1" d="M327.72,154l.15,40.16a7.67,7.67,0,0,1-15.34,0L312.39,154,320,127.17Z"/><path class="cls-2" d="M315.57,142.76s-.06,4.44,4.45,4.42,4.45-4.45,4.45-4.45L320,127.17Z"/><line class="cls-2" x1="323.06" y1="161" x2="323.22" y2="201.22"/><line class="cls-2" x1="317.22" y1="201.12" x2="317.06" y2="161.02"/><path class="cls-2" d="M312.39,154s-.1,7.7,7.73,7.68,7.71-7.73,7.71-7.73"/><path class="cls-1" d="M344.39,154l.14,40.16a7.67,7.67,0,1,1-15.33,0L329.06,154l7.57-26.87Z"/><path class="cls-2" d="M332.24,142.76s-.06,4.44,4.45,4.42,4.44-4.45,4.44-4.45l-4.5-15.56Z"/><line class="cls-2" x1="339.72" y1="161" x2="339.89" y2="201.22"/><line class="cls-2" x1="333.89" y1="201.12" x2="333.72" y2="161.02"/><path class="cls-2" d="M329.06,154s-.1,7.7,7.73,7.68,7.71-7.73,7.71-7.73"/><path class="cls-1" d="M361.06,154l.14,40.16a7.67,7.67,0,1,1-15.33,0L345.73,154l7.57-26.87Z"/><path class="cls-2" d="M348.9,142.76s-.06,4.44,4.46,4.42,4.44-4.45,4.44-4.45l-4.5-15.56Z"/><line class="cls-2" x1="356.39" y1="161" x2="356.56" y2="201.22"/><line class="cls-2" x1="350.56" y1="201.12" x2="350.39" y2="161.02"/><path class="cls-2" d="M345.73,154s-.11,7.7,7.72,7.68,7.71-7.73,7.71-7.73"/><path class="cls-1" d="M302.74,175.8l.14,40.16a7.67,7.67,0,0,1-15.34,0l-.14-40.16L295,149Z"/><path class="cls-2" d="M290.58,164.57S290.52,169,295,169s4.45-4.45,4.45-4.45L295,149Z"/><line class="cls-2" x1="298.07" y1="182.81" x2="298.24" y2="223.03"/><line class="cls-2" x1="292.24" y1="222.93" x2="292.07" y2="182.83"/><path class="cls-2" d="M287.4,175.79s-.1,7.7,7.73,7.68,7.71-7.73,7.71-7.73"/><path class="cls-1" d="M319.4,175.8l.14,40.16a7.67,7.67,0,1,1-15.33,0l-.14-40.16L311.64,149Z"/><path class="cls-2" d="M307.25,164.57s-.06,4.44,4.45,4.42,4.45-4.45,4.45-4.45L311.64,149Z"/><line class="cls-2" x1="314.74" y1="182.81" x2="314.9" y2="223.03"/><line class="cls-2" x1="308.9" y1="222.93" x2="308.74" y2="182.83"/><path class="cls-2" d="M304.07,175.79s-.1,7.7,7.73,7.68,7.71-7.73,7.71-7.73"/><path class="cls-1" d="M336.07,175.8l.14,40.16a7.67,7.67,0,1,1-15.33,0l-.14-40.16L328.31,149Z"/><path class="cls-2" d="M323.92,164.57s-.06,4.44,4.45,4.42,4.44-4.45,4.44-4.45L328.31,149Z"/><line class="cls-2" x1="331.4" y1="182.81" x2="331.57" y2="223.03"/><line class="cls-2" x1="325.57" y1="222.93" x2="325.4" y2="182.83"/><path class="cls-2" d="M320.74,175.79s-.1,7.7,7.72,7.68,7.72-7.73,7.72-7.73"/><path class="cls-1" d="M352.74,175.8l.14,40.16a7.67,7.67,0,1,1-15.33,0l-.15-40.16L345,149Z"/><path class="cls-2" d="M340.58,164.57S340.52,169,345,169s4.44-4.45,4.44-4.45L345,149Z"/><line class="cls-2" x1="348.07" y1="182.81" x2="348.24" y2="223.03"/><line class="cls-2" x1="342.24" y1="222.93" x2="342.07" y2="182.83"/><path class="cls-2" d="M337.4,175.79s-.1,7.7,7.73,7.68,7.71-7.73,7.71-7.73"/><path class="cls-1" d="M294.39,194.2l.14,40.16a7.67,7.67,0,1,1-15.33.06l-.14-40.16,7.57-26.87Z"/><path class="cls-2" d="M282.24,183s-.06,4.44,4.45,4.42,4.44-4.45,4.44-4.45l-4.5-15.56Z"/><line class="cls-2" x1="289.72" y1="201.22" x2="289.89" y2="241.44"/><line class="cls-2" x1="283.89" y1="241.34" x2="283.72" y2="201.24"/><path class="cls-2" d="M279.06,194.2s-.1,7.7,7.72,7.67,7.72-7.72,7.72-7.72"/><path class="cls-1" d="M311.06,194.2l.14,40.16a7.67,7.67,0,1,1-15.33.06l-.15-40.16,7.58-26.87Z"/><path class="cls-2" d="M298.9,183s-.06,4.44,4.46,4.42S307.8,183,307.8,183l-4.5-15.56Z"/><line class="cls-2" x1="306.39" y1="201.22" x2="306.56" y2="241.44"/><line class="cls-2" x1="300.56" y1="241.34" x2="300.39" y2="201.24"/><path class="cls-2" d="M295.72,194.2s-.1,7.7,7.73,7.67,7.71-7.72,7.71-7.72"/><path class="cls-1" d="M327.72,194.2l.15,40.16a7.67,7.67,0,1,1-15.34.06l-.14-40.16L320,167.39Z"/><path class="cls-2" d="M315.57,183s-.06,4.44,4.45,4.42,4.45-4.45,4.45-4.45L320,167.39Z"/><line class="cls-2" x1="323.06" y1="201.22" x2="323.22" y2="241.44"/><line class="cls-2" x1="317.22" y1="241.34" x2="317.06" y2="201.24"/><path class="cls-2" d="M312.39,194.2s-.1,7.7,7.73,7.67,7.71-7.72,7.71-7.72"/><path class="cls-1" d="M344.39,194.2l.14,40.16a7.67,7.67,0,1,1-15.33.06l-.14-40.16,7.57-26.87Z"/><path class="cls-2" d="M332.24,183s-.06,4.44,4.45,4.42,4.44-4.45,4.44-4.45l-4.5-15.56Z"/><line class="cls-2" x1="339.72" y1="201.22" x2="339.89" y2="241.44"/><line class="cls-2" x1="333.89" y1="241.34" x2="333.72" y2="201.24"/><path class="cls-2" d="M329.06,194.2s-.1,7.7,7.73,7.67,7.71-7.72,7.71-7.72"/><path class="cls-1" d="M361.06,194.2l.14,40.16a7.67,7.67,0,1,1-15.33.06l-.14-40.16,7.57-26.87Z"/><path class="cls-2" d="M348.9,183s-.06,4.44,4.46,4.42S357.8,183,357.8,183l-4.5-15.56Z"/><line class="cls-2" x1="356.39" y1="201.22" x2="356.56" y2="241.44"/><line class="cls-2" x1="350.56" y1="241.34" x2="350.39" y2="201.24"/><path class="cls-2" d="M345.73,194.2s-.11,7.7,7.72,7.67,7.71-7.72,7.71-7.72"/><path class="cls-2" d="M307.25,124.35s-.06,4.44,4.45,4.43,4.45-4.46,4.45-4.46l-4.51-15.56Z"/><path class="cls-2" d="M323.92,124.35s-.06,4.44,4.45,4.43,4.44-4.46,4.44-4.46l-4.5-15.56Z"/></g><g id="scene"><g id="boys"><path class="cls-3" d="M70.57,234.15s4.17,3.3,11.7,4.32,7.87,2.4,8,4.11-10.78,1.2-17.79,1-6.3-3.48-6.64-8.79Z"/><path class="cls-3" d="M37.08,236.19s-3.76,1.71-11.29,2.74-7.87,2.39-8,4.1,10.78,1.2,17.8,1,6-1.88,6.33-7.18Z"/><polygon class="cls-4" points="70.39 202.71 71.32 234.31 65.55 235.46 63.01 204.32 70.39 202.71"/><polygon class="cls-4" points="37.94 203.34 35.44 236.46 43.14 237.23 46.03 204.88 37.94 203.34"/><path class="cls-5" d="M96.79,117.3s-3.72,14.88-16.59,15.5-20.32-3.41-24.66-5.27l-.53-.2c-.41,2.78-1.53,7.08-4.59,6.87-3.3-.23-4.18-4.31-4.41-6.46l-.2.06A114.67,114.67,0,0,0,24.3,138.05c-9.67,6.2-11.4,11-2.88,25.83,2.45-2.74,4.62-5.19,7.79-6.06-4.47-6.06-6.06-8.23-2.16-10.82s8.8-5.2,8.8-5.2L36,153.27l31.79-2.94-1.55-11s10.86,4.29,21.56-.52,16.59-16.7,16.59-16.7Z"/><path class="cls-6" d="M91.54,83.23C86.49,69.38,75.41,70.35,75.41,70.35S73,65.17,59.51,63.48,37.24,67.22,26.4,74s-13.24,1.56-13.24,1.56a17,17,0,0,0,5.48,9.89c-7.14,12-1.07,21-.86,21.29a2,2,0,0,1,1.38.42C18,102.34,17.71,95.5,21.42,87.35c8.84,3.87,34.13,6.41,49.25-9.68.73,7.14,6.42,24.32,14.4,28.56,0,0,.38-3.84,4-3C91.3,101.29,94.43,93,91.54,83.23Z"/><path class="cls-7" d="M38.64,129.86s.93,12.71,1.55,17.21c.15,1.71,5.27.77,13.8.31s8.53,0,8.22-4.19-1.86-13.64-1.86-13.64,3.72.31,4.18,1.7,4.35,15.36,6.36,24.81,6.36,36.6,5.59,45.91c-17.06,7.13-40.32,5.42-48.85-1.09,3.72-21.25,8.06-52.88,8.06-60.63s-.62-9.62.31-9.93A15.25,15.25,0,0,1,38.64,129.86Z"/><path class="cls-8" d="M46.16,146.8h0c-.87.59-1.77,1.25-2.71,2,0,0-.25.2-.69.58h0c-.83.72-2.36,2.11-4.21,4l-.13.13-.87.93,0,0h0c-1.28,1.37-2.66,3-4.06,4.72h0l0,0c-4.1,5.2-8.26,11.95-9.86,19.33-1.25,7.44,5,13.49,17,3.26s21.09-22.34,21.87-30.24C63.25,144.15,59.07,138,46.16,146.8Z"/><path class="cls-9" d="M29.21,157.82s-4.84,2-5,6.24,3.39,2.55,3.95,2.34,1.19.7,2.25,2.67,2,2,2.81,1.55.21-2.32-.71-3.38-1.33-1.75-1-1.89,3.44,3.09,4.22,3.23-.56-3.31-.56-3.31,2.1,2,3.16,1.83.84-2.95-1.41-4.92c2.46,1.13,3.38,1.06,3.52.56S34.21,155.71,29.21,157.82Z"/><path class="cls-9" d="M129.2,142.73c-1.5-3.14-4.73-9.41-5.91-11.7,2.52-1.13,3.14-2.45,1.64-5.79-1.87-4.18-9.38-22.23-12.56-30.32-3.05-7.78-2.61-12.11-8.38-11.51-.74-2.41-2.95-9.68-3.89-13.36C99,65.6,97,64.78,95,65.5S91.52,66.74,93.69,71c2,3.86,6.26,12,7,13.41a4.52,4.52,0,0,0-2.33,5.91c1.88,5.78,14.44,34.8,15.59,38,1,2.87,2.44,4.67,5.89,3.93.52,1.58,2.81,8.61,3.77,12.85,1.08,4.81,2.32,4.5,4.8,3.73S131.06,146.61,129.2,142.73Z"/><path class="cls-10" d="M104.84,115.46s-4.25-1-4.75-4.55,1.52-7.08,3.13-7c.81,0,.61,1.21.61,1.21s.81-3,2.83-2.93-.6,7.07-.6,7.07.5-1.21,1.82.11S108.48,116.27,104.84,115.46Z"/><path class="cls-11" d="M50.47,128.37c-1.55-.11-3-.28-4.39-.49a19.21,19.21,0,0,0,.93,1.75,35.31,35.31,0,0,1,7.91-1.08l1.49-.1A49.71,49.71,0,0,1,50.47,128.37Z"/><path class="cls-9" d="M89,103.22c-3.57-.83-4,3-4,3-8-4.24-13.67-21.42-14.4-28.56C55.55,93.76,30.26,91.22,21.42,87.35c-3.83,8.41-3.42,15.41-2.15,20.22,0-.15-.08-.3-.11-.45a2,2,0,0,0-1.38-.42h0a4.44,4.44,0,0,0-1.57,4.48c.85,5.32,6.17,3.39,6.17,3.39S27.82,125.11,46,127.87c.25,2.18,1.15,6.1,4.39,6.33,2.65.18,3.85-3,4.38-5.7C76.14,128.23,82,113.69,82,113.69h0a6.32,6.32,0,0,0,8.43-1.92C92.63,108.39,92,104.3,89,103.22ZM19.38,108c0,.13.07.25.11.38C19.45,108.2,19.41,108.08,19.38,108Zm.25.83c0,.09.06.18.09.27C19.69,109,19.65,108.87,19.63,108.78Zm.26.77.06.17Zm.26.73,0,0Z"/><path class="cls-10" d="M42.14,119.19S54.4,120.25,60,112.52C60.09,121.05,54.05,128.61,42.14,119.19Z"/></g><g id="girl"><path class="cls-6" d="M233.82,81.34c-1.09-3-8.23-9.62-19.72-10.71-19.42-1.55-34.48,8.54-41.78,22.83-7.11,19,4.14,22.8,5.19,23.11l-.06-.55a104,104,0,0,1,8.47,16.59,6.56,6.56,0,0,0,.4,3.19c-.31.86-.71,2.54.35,3.69,1.4,1.51,2.68-1.36,2.41-3a5.65,5.65,0,0,0,1.17-3.07l40-5a5.18,5.18,0,0,0,2.39,2.65,5.21,5.21,0,0,0,2.27,3c.31,1,1.24,3.11,3.54,3.36,1.51,0,.32-3.79-1.1-4.89a6,6,0,0,0-.38-2c-.56-1.5-1.17-1.89-1.39-2a11.52,11.52,0,0,0-1.31-5.21v-.19c0-2,3-6.24,5.08-8.84,1.56.81,2.53,3.49,1.14,7.13,2.79-2,7.92-5.28,9.16-15.06C250.44,93,239.41,81.19,233.82,81.34Z"/><path class="cls-12" d="M235.44,168.72c-3-.13-7.41,6.64-7.41,6.64s2.95-3.21,4.62-3.13-.15,5.69-4.62,3.13c1.28,1.52,8.29,2.06,8.85,0S237.28,168.8,235.44,168.72Z"/><path class="cls-12" d="M228.59,175.66s8.69,3.59,10.36,4.71a7.39,7.39,0,0,1-1.75,2.47S230.5,178.45,228.59,175.66Z"/><path class="cls-13" d="M207.56,143.3c3,.38,4.38-4.46,4.86-6.76l-1.24.11c-.34,1.94-1.33,6.11-3.53,5.92s-2-3.72-1.79-5.49l-.73.06C204.84,138.81,204.45,142.91,207.56,143.3Z"/><path class="cls-14" d="M203.63,155.71s-1.43-2.37.64-3.3a2.4,2.4,0,0,1,3.44,2,2.32,2.32,0,0,1,4-.65,2,2,0,0,1-1.5,3.08c2.43.22,2.79,1.94,2.15,3a2.74,2.74,0,0,1-4.16.15c.08,2.43-3.22,2.72-4,1.36a2.47,2.47,0,0,1-.14-2.44s-2.79,0-2.65-2.22S203.63,155.71,203.63,155.71Z"/><path class="cls-14" d="M208.25,156.62a1.27,1.27,0,1,1-1.27-1.26A1.27,1.27,0,0,1,208.25,156.62Z"/><path class="cls-14" d="M210.51,180.57s-1.44-2.36.64-3.29a2.4,2.4,0,0,1,3.44,2,2.32,2.32,0,0,1,4-.65,2,2,0,0,1-1.51,3.08c2.44.21,2.8,1.94,2.16,3a2.75,2.75,0,0,1-4.16.14c.07,2.44-3.22,2.72-4,1.36a2.45,2.45,0,0,1-.14-2.43s-2.8,0-2.65-2.22S210.51,180.57,210.51,180.57Z"/><path class="cls-14" d="M215.13,181.49a1.27,1.27,0,1,1-1.27-1.27A1.26,1.26,0,0,1,215.13,181.49Z"/><path class="cls-14" d="M193.6,178.28s-1.43-2.36.65-3.29a2.4,2.4,0,0,1,3.44,2,2.32,2.32,0,0,1,4-.64,2,2,0,0,1-1.51,3.08c2.44.21,2.79,1.93,2.15,3a2.74,2.74,0,0,1-4.15.14c.07,2.44-3.23,2.72-4,1.36a2.47,2.47,0,0,1-.15-2.43s-2.79,0-2.65-2.22S193.6,178.28,193.6,178.28Z"/><path class="cls-14" d="M198.22,179.2a1.27,1.27,0,1,1-1.26-1.27A1.26,1.26,0,0,1,198.22,179.2Z"/><path class="cls-14" d="M190.6,190.6a2,2,0,0,0,1.5-3.08,2.32,2.32,0,0,0-4,.65,2.45,2.45,0,0,0-1.08-1.85c.2,3.11.33,6.22.47,9.33a2,2,0,0,0,1.11-1.9,2.74,2.74,0,0,0,4.16-.14C193.39,192.54,193,190.82,190.6,190.6Z"/><path class="cls-14" d="M187.36,189.1l-.19,0c.05.84.09,1.67.13,2.51h.06a1.27,1.27,0,1,0,0-2.53Z"/><path class="cls-14" d="M202.69,198.78s-.41-2.73,1.87-2.78a2.39,2.39,0,0,1,2.39,3.18,2.33,2.33,0,0,1,4,1,2,2,0,0,1-2.59,2.25c2.16,1.14,1.83,2.87.82,3.61a2.75,2.75,0,0,1-3.89-1.48c-.88,2.27-4,1.25-4.22-.31a2.47,2.47,0,0,1,.81-2.3s-2.57-1.08-1.58-3.07S202.69,198.78,202.69,198.78Z"/><path class="cls-14" d="M206.59,201.42a1.26,1.26,0,1,1-.68-1.66A1.27,1.27,0,0,1,206.59,201.42Z"/><path class="cls-14" d="M229.2,191.46a2.27,2.27,0,0,0-.77.56,2.39,2.39,0,0,0-2.38-3.18c-2.28,0-1.88,2.78-1.88,2.78s-1.44-1.93-2.43.06,1.58,3.08,1.58,3.08a2.46,2.46,0,0,0-.82,2.3c.2,1.56,3.35,2.57,4.23.3a2.78,2.78,0,0,0,2.51,1.83A68.73,68.73,0,0,0,229.2,191.46Z"/><path class="cls-14" d="M228.07,194.26a1.27,1.27,0,1,1-.67-1.66A1.26,1.26,0,0,1,228.07,194.26Z"/><path class="cls-14" d="M221,160.68h-.3c-2.27.05-1.87,2.79-1.87,2.79s-1.44-1.93-2.44.06,1.58,3.07,1.58,3.07a2.47,2.47,0,0,0-.81,2.3c.2,1.57,3.35,2.58,4.23.31a2.8,2.8,0,0,0,3.51,1.68A34.39,34.39,0,0,1,221,160.68Z"/><path class="cls-14" d="M221.94,164.42a1.26,1.26,0,1,0,.67,1.81C222.37,165.63,222.14,165,221.94,164.42Z"/><path class="cls-14" d="M197.05,162a2.32,2.32,0,0,0-3.94-1A2.5,2.5,0,0,0,192,158.1a83.08,83.08,0,0,0-2.32,9.55,2,2,0,0,0,1.69-1.32,2.73,2.73,0,0,0,3.88,1.48c1-.74,1.35-2.46-.81-3.6A2,2,0,0,0,197.05,162Z"/><path class="cls-14" d="M192.07,161.57a1.27,1.27,0,0,0-1,0c-.16.63-.32,1.26-.46,1.9a1.26,1.26,0,0,0,2.17-.27A1.28,1.28,0,0,0,192.07,161.57Z"/><path class="cls-9" d="M196.61,238.29c.73.93,10,.14,13.62-3.14-.53-1.89-1.62-3.52-2.85-3.09a32,32,0,0,1-9,4.57c-.62.21-1.21.44-1.77.67A.87.87,0,0,0,196.61,238.29Z"/><path class="cls-9" d="M210.23,235.15c-3.62,3.28-12.89,4.07-13.62,3.14a.87.87,0,0,1,0-1c-4.83,2-7.47,4.59-6.69,6.28.88,1.87,10.71.12,16.72-2.63,3.88-2,4.19-2.57,3.82-4.82C210.39,235.8,210.32,235.47,210.23,235.15Z"/><path class="cls-9" d="M246,234c2-.34,3-.76,3.34-1.18-1.07-.23-2.07-.45-2.91-.68l-10-2.72s-.37,1.64-.63,3.73C237.62,234.08,241.37,234.77,246,234Z"/><path class="cls-9" d="M249.3,232.81c-.36.42-1.31.84-3.34,1.18-4.59.78-8.34.09-10.23-.85-.11.92-.2,1.94-.23,2.93-.07,3.22,3.66,3.08,9.1,2.94s14-1,13.9-2.65C258.21,234.71,253.32,233.7,249.3,232.81Z"/><path class="cls-11" d="M177.51,116.57v0h.08Z"/><path class="cls-9" d="M168.34,150s-7.35-2.19-11.07.39c-2.3,1.91,1,3.82,5,3.91s6.88-.38,8.79-3,2.48-3.82,1.24-3.72S170.25,150.14,168.34,150Z"/><path class="cls-9" d="M268.91,132.57c-.25-.9-3.66-1.86-7.39.45.77-3.15,5.59-4.56,4.52-5.32s-4.39,0-7.64,4c-.57-2.84-3.57-3.51-4.46-2a1.7,1.7,0,0,0,1,1.61c1.15.62,1.81,2.92.24,3.3s-2.58-1.91-1.58-3.87a1.64,1.64,0,0,0,.22-1.19c-.46-.83-2.91-.49-3.18,3.53a8.47,8.47,0,0,0,2.77,6.78,5.54,5.54,0,0,0,8.86-2.5c1.86,1,4.44,2.57,4.57,1.41.13-2.38-4.12-3.41-4-3.79C262.94,134.3,269.17,133.47,268.91,132.57Z"/><rect class="cls-15" x="142.25" y="146.91" width="40.07" height="1.66" transform="translate(-13.93 16.92) rotate(-5.72)"/><path class="cls-16" d="M153.72,141.1c1.54-1.44,2.32-1,4-.26a5.45,5.45,0,0,0,6.23-.92c1.9-2,3.29-.93,4.68-.26s3.76,1.8,5.15-.1,1.8-1.29,2.78-.42a1.12,1.12,0,0,0,1.73-.17,3.14,3.14,0,0,0,0-2.6c-.62-1.49-2.73-1-10.64-.75s-16.09.25-19.92,1.61c-3.08,1.1.25,4.08.25,4.08A4.54,4.54,0,0,0,153.72,141.1Z"/><path class="cls-17" d="M176.52,139.14c-1-.87-1.4-1.49-2.78.42s-3.76.77-5.15.1-2.78-1.75-4.68.26a5.45,5.45,0,0,1-6.23.92c-1.64-.72-2.42-1.18-4,.26a4.54,4.54,0,0,1-5.78.21l1,6.81,30.31-2.85-1-6.3A1.12,1.12,0,0,1,176.52,139.14Z"/><path class="cls-18" d="M160.68,135.92a5.39,5.39,0,0,1-2-.65,1.74,1.74,0,0,1-.31-2.35c1.45-2.83,3.44-5,5.17-3a6.11,6.11,0,0,1,1.49,4.55c-.37,1.63-2.46,1.71-3.79,1.53Z"/><path class="cls-9" d="M237.08,114.42a32.48,32.48,0,0,0,0-5.59c-3.57-1.24-8.7-9.78-9.16-13.67-8.08,7.77-34.32,8.39-49.54,8.08a34.72,34.72,0,0,0-.87,13.33l.09,0h-.08c-3.81-.27-4.75,2.13-4,4.66,1,3.17,3.57,4.66,6.21,3.11,1.79,4.69,9.35,13,22.56,14.21-1.12,3.46-2.7,8.89-2.58,11.38a48.87,48.87,0,0,0,14.52-.19l1.23-6.39,4.51.1a6.85,6.85,0,0,0,1.2,2.68c2.08,2.3,2.2-.38,1.89-2a16.45,16.45,0,0,0-1.24-4.44,2.81,2.81,0,0,0-1.23-1.29c-1-.46-1.16.8-1.09,2.1l-3.52.1.66-3.4c10.17-2.69,15.26-8.6,17.59-14.13,1.25.93,5,1.24,6.22-1.71C242.52,116.13,239.56,112.87,237.08,114.42ZM207.56,143.3c-2.36-.29-2.71-2.71-2.61-4.6h.8c0,1.74.3,3.73,1.9,3.87s2.64-2.22,3.16-4.21l1.2-.17C211.32,140.59,210,143.6,207.56,143.3Z"/><path class="cls-19" d="M228,175.36a259.27,259.27,0,0,0-4.94-30.9c.2,1.51,0,3.54-1.86,1.52a7.81,7.81,0,0,1-1.3-3.21c-.17-.75-.89-4.87.75-4.11a1.41,1.41,0,0,1,.35.21c-1.67-2.49-3.48-1.65-3.48-1.65-1.84,13.1,6.13,48.07,11.29,62.54,3.87-1.29,8.31-6.16,8.31-6.16A177.52,177.52,0,0,1,228,175.36Z"/><path class="cls-12" d="M228,175.36c-4.2-4.59-12.28-21.93-9.23-38.74-.63.09-1.33.54-2.11.63l-2.41,12.51a48.87,48.87,0,0,1-14.52.19c-.14-2.82,1.59-8.17,2.67-11.4a8.43,8.43,0,0,1-1.17-.05s-19.83,28.07-12.77,65.7c0,0,4.78,5.15,20.44,3.82s20.63-5.92,20.63-5.92S229.56,182.61,228,175.36Z"/><g id="flowers"><path class="cls-14" d="M205.92,162.32a2.08,2.08,0,0,1-1.84-.88,2.69,2.69,0,0,1-.24-2.38,3.23,3.23,0,0,1-2.07-.84,1.92,1.92,0,0,1-.5-1.52c.08-1.21.71-1.47,1.23-1.47a2.54,2.54,0,0,1,.82.17,2.91,2.91,0,0,1-.23-1.94,1.93,1.93,0,0,1,1.13-1.18,2.91,2.91,0,0,1,1.16-.26,2.58,2.58,0,0,1,2.4,1.9,2.46,2.46,0,0,1,2.13-1.18,2.4,2.4,0,0,1,1.93.95,1.94,1.94,0,0,1,.2,2.08,2.38,2.38,0,0,1-1.09,1.06,2.41,2.41,0,0,1,1.64,1.17,2,2,0,0,1-.1,1.93,2.65,2.65,0,0,1-2.26,1.1,2.77,2.77,0,0,1-1.88-.7,2.08,2.08,0,0,1-.57,1.26A2.56,2.56,0,0,1,205.92,162.32Z"/><path class="cls-14" d="M212.8,187.19a2.1,2.1,0,0,1-1.85-.89,2.7,2.7,0,0,1-.24-2.37,3.28,3.28,0,0,1-2.07-.85,1.92,1.92,0,0,1-.5-1.51c.08-1.22.72-1.47,1.24-1.47a2.24,2.24,0,0,1,.81.17,2.93,2.93,0,0,1-.22-2,1.92,1.92,0,0,1,1.12-1.17,2.8,2.8,0,0,1,1.16-.27,2.6,2.6,0,0,1,2.41,1.91,2.46,2.46,0,0,1,2.13-1.18,2.37,2.37,0,0,1,1.92.94,1.93,1.93,0,0,1,.21,2.08,2.37,2.37,0,0,1-1.1,1.07,2.41,2.41,0,0,1,1.64,1.16,2,2,0,0,1-.09,1.94,2.66,2.66,0,0,1-2.26,1.1,2.83,2.83,0,0,1-1.89-.7,2,2,0,0,1-.57,1.26A2.56,2.56,0,0,1,212.8,187.19Z"/><path class="cls-14" d="M195.89,184.9a2.08,2.08,0,0,1-1.84-.89,2.7,2.7,0,0,1-.24-2.37,3.34,3.34,0,0,1-2.07-.85,1.92,1.92,0,0,1-.5-1.51c.08-1.22.71-1.47,1.23-1.47a2.3,2.3,0,0,1,.82.17,2.87,2.87,0,0,1-.22-1.95,1.9,1.9,0,0,1,1.12-1.17,2.76,2.76,0,0,1,1.16-.27,2.61,2.61,0,0,1,2.41,1.91,2.45,2.45,0,0,1,2.12-1.18,2.37,2.37,0,0,1,1.93.94,1.91,1.91,0,0,1,.2,2.08,2.24,2.24,0,0,1-1.09,1.06,2.44,2.44,0,0,1,1.64,1.17,2,2,0,0,1-.1,1.94,2.64,2.64,0,0,1-2.25,1.1,2.83,2.83,0,0,1-1.89-.7,2.07,2.07,0,0,1-.57,1.26A2.59,2.59,0,0,1,195.89,184.9Z"/><path class="cls-14" d="M187.35,195.88l-.08-1.68c-.12-2.58-.24-5.25-.4-7.87l0-.3.25.17a2.82,2.82,0,0,1,1.06,1.48,2.44,2.44,0,0,1,2.12-1.19,2.38,2.38,0,0,1,1.93.95,1.93,1.93,0,0,1,.21,2.08,2.4,2.4,0,0,1-1.1,1.06,2.45,2.45,0,0,1,1.65,1.16,2,2,0,0,1-.1,1.94,2.66,2.66,0,0,1-2.26,1.1h0a2.84,2.84,0,0,1-1.89-.69,2.06,2.06,0,0,1-1.17,1.69Z"/><path class="cls-14" d="M207.9,206.5a3,3,0,0,1-2.67-1.62,2.08,2.08,0,0,1-1.9,1.11,2.42,2.42,0,0,1-2.46-1.75,2.67,2.67,0,0,1,.71-2.28,3.35,3.35,0,0,1-1.59-1.59,2,2,0,0,1,.13-1.59c.33-.65.74-1,1.23-1a1.78,1.78,0,0,1,1.16.58,3,3,0,0,1,.55-1.88,2,2,0,0,1,1.5-.65h.07a2.43,2.43,0,0,1,2.14,1.08,2.72,2.72,0,0,1,.43,1.82,2.39,2.39,0,0,1,1.43-.46,2.44,2.44,0,0,1,2.4,1.82,1.89,1.89,0,0,1-.33,1.69,2.31,2.31,0,0,1-1.71.86,2.38,2.38,0,0,1,1.06,1.71,2,2,0,0,1-.84,1.75A2.18,2.18,0,0,1,207.9,206.5Z"/><path class="cls-14" d="M229.37,199.34h-.14a3,3,0,0,1-2.51-1.61,2.09,2.09,0,0,1-1.91,1.11,2.41,2.41,0,0,1-2.45-1.75,2.7,2.7,0,0,1,.7-2.28,3.34,3.34,0,0,1-1.58-1.59,2,2,0,0,1,.13-1.59c.32-.65.74-1,1.22-1a1.8,1.8,0,0,1,1.17.58,3,3,0,0,1,.55-1.88,1.93,1.93,0,0,1,1.49-.65h.08a2.4,2.4,0,0,1,2.13,1.08,2.73,2.73,0,0,1,.44,1.82,2,2,0,0,1,.45-.26l.19-.08v.2a68.9,68.9,0,0,1,0,7.74Z"/><path class="cls-14" d="M224,171.17h0a3,3,0,0,1-2.67-1.62,2.08,2.08,0,0,1-1.91,1.12,2.41,2.41,0,0,1-2.45-1.76,2.66,2.66,0,0,1,.7-2.28,3.27,3.27,0,0,1-1.58-1.58,1.91,1.91,0,0,1,.13-1.59c.32-.65.73-1,1.22-1a1.86,1.86,0,0,1,1.17.57,2.88,2.88,0,0,1,.55-1.88,1.9,1.9,0,0,1,1.49-.64h.41l0,.11A34.29,34.29,0,0,0,225,170.81l.08.14-.15.06A2.4,2.4,0,0,1,224,171.17Z"/><path class="cls-14" d="M194.06,168.31a3,3,0,0,1-2.67-1.62,2.06,2.06,0,0,1-1.66,1.1l-.19,0,0-.19a81.49,81.49,0,0,1,2.32-9.56l.06-.16.15.08a2.61,2.61,0,0,1,1.26,2.58,2.36,2.36,0,0,1,1.42-.46,2.44,2.44,0,0,1,2.41,1.82,1.89,1.89,0,0,1-.33,1.69,2.32,2.32,0,0,1-1.71.86,2.42,2.42,0,0,1,1.06,1.71,2,2,0,0,1-.84,1.75A2.28,2.28,0,0,1,194.06,168.31Z"/></g><path class="cls-20" d="M207,158a1.41,1.41,0,1,1,1.41-1.41A1.41,1.41,0,0,1,207,158Z"/><path class="cls-20" d="M213.86,182.89a1.41,1.41,0,1,1,1.41-1.4A1.41,1.41,0,0,1,213.86,182.89Z"/><path class="cls-20" d="M197,180.6a1.41,1.41,0,1,1,1.41-1.4A1.41,1.41,0,0,1,197,180.6Z"/><path class="cls-20" d="M187.36,191.78l-.17,0,0-.13-.12-2.5V189l.13,0,.21,0a1.41,1.41,0,0,1,0,2.82Z"/><path class="cls-20" d="M205.42,202.34a1.41,1.41,0,0,1-1.29-2,1.39,1.39,0,0,1,1.29-.86,1.46,1.46,0,0,1,.55.11,1.41,1.41,0,0,1-.55,2.71Z"/><path class="cls-20" d="M226.91,195.17a1.32,1.32,0,0,1-.55-.11,1.34,1.34,0,0,1-.75-.76,1.35,1.35,0,0,1,0-1.08,1.41,1.41,0,0,1,1.3-.86,1.5,1.5,0,0,1,.55.11,1.41,1.41,0,0,1,.75,1.84A1.39,1.39,0,0,1,226.91,195.17Z"/><path class="cls-20" d="M221.51,167h0a1.41,1.41,0,0,1-1.29-1.95,1.39,1.39,0,0,1,1.29-.86,1.56,1.56,0,0,1,.48.08l.07,0,0,.06c.19.58.41,1.18.66,1.81l0,.06,0,.07A1.42,1.42,0,0,1,221.51,167Z"/><path class="cls-20" d="M191.58,164.14h0A1.32,1.32,0,0,1,191,164a1.3,1.3,0,0,1-.57-.45l0-.05v-.06c.16-.69.32-1.31.47-1.91v-.06l.06,0a1.44,1.44,0,0,1,1.15,0,1.4,1.4,0,0,1-.54,2.7Z"/></g><g id="colors"><path class="cls-21" d="M290.58,124.35s-.06,4.44,4.45,4.43,4.45-4.46,4.45-4.46L295,108.76Z"/><path class="cls-22" d="M340.58,124.35s-.06,4.44,4.46,4.43,4.44-4.46,4.44-4.46L345,108.76Z"/><path class="cls-23" d="M282.24,142.76s-.06,4.44,4.45,4.42,4.44-4.45,4.44-4.45l-4.5-15.56Z"/><path class="cls-24" d="M298.9,142.76s-.06,4.44,4.46,4.42,4.44-4.45,4.44-4.45l-4.5-15.56Z"/><path class="cls-25" d="M315.57,142.76s-.06,4.44,4.45,4.42,4.45-4.45,4.45-4.45L320,127.17Z"/><path class="cls-26" d="M332.24,142.76s-.06,4.44,4.45,4.42,4.44-4.45,4.44-4.45l-4.5-15.56Z"/><path class="cls-27" d="M348.9,142.76s-.06,4.44,4.46,4.42,4.44-4.45,4.44-4.45l-4.5-15.56Z"/><path class="cls-28" d="M290.58,164.57S290.52,169,295,169s4.45-4.45,4.45-4.45L295,149Z"/><path class="cls-29" d="M307.25,164.57s-.06,4.44,4.45,4.42,4.45-4.45,4.45-4.45L311.64,149Z"/><path class="cls-30" d="M323.92,164.57s-.06,4.44,4.45,4.42,4.44-4.45,4.44-4.45L328.31,149Z"/><path class="cls-31" d="M340.58,164.57S340.52,169,345,169s4.44-4.45,4.44-4.45L345,149Z"/><path class="cls-1" d="M282.24,183s-.06,4.44,4.45,4.42,4.44-4.45,4.44-4.45l-4.5-15.56Z"/><path class="cls-32" d="M298.9,183s-.06,4.44,4.46,4.42S307.8,183,307.8,183l-4.5-15.56Z"/><path class="cls-33" d="M315.57,183s-.06,4.44,4.45,4.42,4.45-4.45,4.45-4.45L320,167.39Z"/><path class="cls-34" d="M332.24,183s-.06,4.44,4.45,4.42,4.44-4.45,4.44-4.45l-4.5-15.56Z"/><path class="cls-35" d="M348.9,183s-.06,4.44,4.46,4.42S357.8,183,357.8,183l-4.5-15.56Z"/><path class="cls-36" d="M307.25,124.35s-.06,4.44,4.45,4.43,4.45-4.46,4.45-4.46l-4.51-15.56Z"/><path class="cls-37" d="M323.92,124.35s-.06,4.44,4.45,4.43,4.44-4.46,4.44-4.46l-4.5-15.56Z"/></g></g><g id="pencil"><path id="pencil-2" data-name="pencil" class="cls-14" d="M312.82,75.87s6.85-7.32-.71-14.16-14.21.67-14.21.67L281.75,95.23Z"/></g><g id="noColor"><path d="M197.72,116.18c.12,1.34-.32,2.47-1,2.53s-1.31-1-1.43-2.31.32-2.46,1-2.52S197.6,114.85,197.72,116.18Z"/><path d="M214.1,113.76c.13,1.33-.32,2.46-1,2.52s-1.3-1-1.42-2.3.32-2.47,1-2.53S214,112.42,214.1,113.76Z"/><path d="M57.42,98.43c.13,1.44-.35,2.67-1.07,2.73s-1.42-1-1.55-2.49.35-2.67,1.07-2.74S57.29,97,57.42,98.43Z"/><path d="M38.19,101.68c.13,1.45-.35,2.67-1.07,2.74s-1.42-1-1.55-2.5.35-2.67,1.07-2.73S38.06,100.24,38.19,101.68Z"/><path d="M100.5,120.25a.7.7,0,0,1-.25,0,.62.62,0,0,1-.32-.82l2.2-4.93a.63.63,0,0,1,.83-.31.62.62,0,0,1,.31.82l-2.21,4.93A.63.63,0,0,1,100.5,120.25Z"/><path d="M181.89,158.63a.58.58,0,0,1-.26-.06l-12.27-6.32a.58.58,0,0,1-.25-.77.59.59,0,0,1,.78-.25l11.92,6.14,16.36-13.84c.24-.21-.06.61-.19.9a5.19,5.19,0,0,1-.71,1.36l-15,12.7A.59.59,0,0,1,181.89,158.63Z"/><path d="M239.24,150.69a.52.52,0,0,1-.24-.05l-17.68-8.3a.57.57,0,0,1,.49-1l17.35,8.15,13.25-10.78a.57.57,0,0,1,.72.89l-13.53,11A.53.53,0,0,1,239.24,150.69Z"/><path d="M70.67,77.9a.24.24,0,0,1-.18-.09.23.23,0,0,1,0-.32s4.22-3.4,4.65-7.17a.22.22,0,0,1,.25-.2.23.23,0,0,1,.21.25c-.45,4-4.64,7.34-4.82,7.48A.21.21,0,0,1,70.67,77.9Z"/><path d="M238.38,142.23c-.07-.81-.1-1.62-.12-2.43s0-1.61,0-2.42l.08-.08.32,0c.39.69.77,1.39,1.13,2.1s.71,1.41,1,2.15c-.47-.65-.9-1.32-1.32-2s-.82-1.36-1.22-2l.41-.1c0,.81,0,1.61-.09,2.42S238.49,141.43,238.38,142.23Z"/><path d="M241.59,140.75a37,37,0,0,1-3.28-3.22l-.14-.23.39-.1a33.66,33.66,0,0,1,3.34,2.06,34.81,34.81,0,0,1-3.54-1.69l.26-.33A38.5,38.5,0,0,1,241.59,140.75Z"/><path d="M186.23,145.63a7.5,7.5,0,0,1,0-.95,14.91,14.91,0,0,1,.28-2,18.24,18.24,0,0,1,.52-2c.18-.53.34-.88.34-.88a6.32,6.32,0,0,1,0,.95,14.91,14.91,0,0,1-.28,2,18.24,18.24,0,0,1-.52,2A8.41,8.41,0,0,1,186.23,145.63Z"/><path d="M187.36,139.81a8.36,8.36,0,0,1,.31.87,17.3,17.3,0,0,1,.44,2,14.79,14.79,0,0,1,.2,2,6.46,6.46,0,0,1,0,.93,9.25,9.25,0,0,1-.31-.88,16.37,16.37,0,0,1-.44-2,14.5,14.5,0,0,1-.2-2A6.38,6.38,0,0,1,187.36,139.81Z"/><path d="M187.42,139.91a4.38,4.38,0,0,1,.46.54,8.25,8.25,0,0,1,.81,1.29,7.84,7.84,0,0,1,.59,1.4,4.2,4.2,0,0,1,.17.68,4.81,4.81,0,0,1-.46-.53,10.82,10.82,0,0,1-.81-1.29,10.15,10.15,0,0,1-.59-1.4A6.52,6.52,0,0,1,187.42,139.91Z"/><path d="M227.92,95.38a.22.22,0,0,1-.15-.06.21.21,0,0,1,0-.3c4.64-5.11,5.83-13.62,5.85-13.71a.21.21,0,0,1,.24-.18.22.22,0,0,1,.18.24c0,.09-1.22,8.73-5.95,13.94A.21.21,0,0,1,227.92,95.38Z"/><path d="M126.39,149.45h0c-1.47,0-2.28-1.17-3-4.34-1.07-4.75-3.84-13.08-3.87-13.16a.23.23,0,0,1,.11-.28l3.1-1.71a.28.28,0,0,1,.18,0,.24.24,0,0,1,.14.12c0,.09,4.52,8.73,6.36,12.57,1.21,2.51,1.53,3.93,1.1,4.9a2.89,2.89,0,0,1-2,1.47A7.36,7.36,0,0,1,126.39,149.45ZM120,132c.42,1.26,2.84,8.65,3.82,13,.75,3.32,1.53,4,2.55,4h0a7.07,7.07,0,0,0,2-.44c1-.3,1.51-.67,1.74-1.2.35-.83,0-2.18-1.1-4.52-1.68-3.49-5.55-11-6.24-12.34Z"/><path d="M82.41,244c-2.41,0-5.11-.07-7.5-.14l-2.4-.06c-6.46-.16-6.59-3-6.78-7.33,0-.53,0-1.09-.08-1.67a.24.24,0,0,1,.2-.25l4.69-.67a.22.22,0,0,1,.17.05,25.76,25.76,0,0,0,11.59,4.27c7.37,1,8,2.36,8.24,4.31a.65.65,0,0,1-.17.51C89.75,243.74,87.3,244,82.41,244Zm-16.29-9c0,.51.06,1,.08,1.47.19,4.35.3,6.74,6.32,6.88l2.41.07c2.38.06,5.08.14,7.48.14,4.55,0,7.11-.28,7.61-.84a.18.18,0,0,0,.06-.14c-.15-1.54-.29-2.87-7.84-3.9a26.55,26.55,0,0,1-11.73-4.3Z"/><path d="M25.65,244.5h0c-4.89,0-7.34-.3-8-1a.64.64,0,0,1-.17-.5c.19-1.95.87-3.31,8.24-4.31A44.72,44.72,0,0,0,37,236a.19.19,0,0,1,.13,0l4.79.68a.24.24,0,0,1,.2.25c0,.71-.07,1.35-.09,1.93-.12,3.87-.17,5.32-6.47,5.47l-2.4.07C30.76,244.42,28.06,244.5,25.65,244.5Zm11.47-8.07a46.28,46.28,0,0,1-11.3,2.73c-7.55,1-7.69,2.36-7.84,3.9a.18.18,0,0,0,.06.14c.5.55,3.06.83,7.61.83h0c2.41,0,5.1-.07,7.48-.14l2.41-.06c5.86-.14,5.89-1.27,6-5,0-.53,0-1.11.07-1.73Z"/><path d="M54.18,128.74h0c-1.21,0-2.47,0-3.73-.13-11.31-.82-18.39-4.55-22.33-7.54a21.36,21.36,0,0,1-5.94-6.39,22.28,22.28,0,0,1-3.27-7.58c-1.07-4.4-1.54-11.41,2.3-19.85a.23.23,0,0,1,.3-.11C24.69,88.53,30.78,90,38.34,90h0C46,90,60.28,88.39,70.5,77.51a.24.24,0,0,1,.25-.06.22.22,0,0,1,.16.19,56.87,56.87,0,0,0,4.45,15.3c2.06,4.68,5.43,10.75,9.82,13.08a.24.24,0,0,1,.12.28c-1.93,5.9-3,7.47-3.08,7.53S75.93,128.74,54.18,128.74ZM21.54,87.65c-3.68,8.22-3.22,15-2.18,19.32a22,22,0,0,0,3.22,7.47c.08.15,6.52,12.16,27.9,13.7,1.26.09,2.5.14,3.7.14,21.43,0,27.58-14.53,27.64-14.67s1.12-1.62,3-7.27C77.12,102.07,71.45,85.9,70.5,78.19,60.18,88.87,46,90.48,38.34,90.48h0A45.8,45.8,0,0,1,21.54,87.65Z"/><path d="M20.29,115.15h0c-1.68,0-3.78-.68-4.3-3.92a4.68,4.68,0,0,1,1.61-4.67.22.22,0,0,1,.16-.09,2.22,2.22,0,0,1,1.54.46.22.22,0,0,1,.08.13,22.25,22.25,0,0,0,3.2,7.38.24.24,0,0,1,0,.2.25.25,0,0,1-.14.16A7.33,7.33,0,0,1,20.29,115.15Zm-2.39-8.23a4.21,4.21,0,0,0-1.45,4.23c.46,2.92,2.34,3.54,3.84,3.54h0a6.66,6.66,0,0,0,1.73-.24A23,23,0,0,1,19,107.26,1.73,1.73,0,0,0,17.9,106.92Z"/><path d="M85.14,114.79h0a5.72,5.72,0,0,1-3.25-.91.23.23,0,0,1,0-.32s1.12-1.61,3-7.41h0s.36-3.28,3.21-3.28a4.55,4.55,0,0,1,1,.12,4.25,4.25,0,0,1,2.62,2.72,7.31,7.31,0,0,1-1,6.18A6.42,6.42,0,0,1,85.14,114.79Zm-2.79-1.16a5.44,5.44,0,0,0,2.79.7,6,6,0,0,0,5.12-2.69,6.86,6.86,0,0,0,1-5.78,3.74,3.74,0,0,0-2.31-2.42,3.92,3.92,0,0,0-.88-.11c-2.44,0-2.74,2.8-2.75,2.92A39.88,39.88,0,0,1,82.35,113.63Z"/><path d="M19.17,107.35h0a.23.23,0,0,1-.14,0,1.77,1.77,0,0,0-1.22-.38.23.23,0,0,1-.21-.1c-.26-.38-6.29-9.35.75-21.37a17.23,17.23,0,0,1-5.41-9.91.22.22,0,0,1,.16-.25.24.24,0,0,1,.28.13c0,.07.87,1.76,3.77,1.76,2.41,0,5.48-1.15,9.14-3.43C35.61,68,43.67,62.94,54.67,62.94a38.85,38.85,0,0,1,4.87.31c12.38,1.55,15.5,6,16,6.86A14.78,14.78,0,0,1,83,72c3.94,2.17,6.9,5.91,8.8,11.13,2.86,9.63-.13,18.17-2.59,20.24a.26.26,0,0,1-.21.06,3.72,3.72,0,0,0-.9-.12c-2.44,0-2.74,2.8-2.75,2.92a.24.24,0,0,1-.35.18C77.2,102.32,71.46,86,70.5,78.19,60.18,88.88,46,90.48,38.34,90.48a45.84,45.84,0,0,1-16.8-2.83c-3.68,8.22-3.22,15-2.17,19.35a.24.24,0,0,1,0,.12A.23.23,0,0,1,19.17,107.35ZM18,106.46a2,2,0,0,1,.86.19c-1-4.44-1.31-11.26,2.4-19.4a.23.23,0,0,1,.3-.11C24.69,88.53,30.78,90,38.34,90S60.28,88.39,70.5,77.51a.24.24,0,0,1,.25-.06.22.22,0,0,1,.16.19c.75,7.38,6.34,23.84,14,28.23.18-.85.86-3,3.16-3a4,4,0,0,1,.89.1c2-1.81,5.31-9.74,2.37-19.67-.77-2.12-5.17-12.74-15.45-12.74a3.94,3.94,0,0,0-.44,0,.23.23,0,0,1-.23-.14s-2.55-5.08-15.71-6.72a38.07,38.07,0,0,0-4.82-.31c-10.87,0-18.87,5-28.14,10.75-3.74,2.32-6.89,3.5-9.39,3.5a5,5,0,0,1-3.6-1.26,17.1,17.1,0,0,0,5.25,8.84.22.22,0,0,1,.05.29c-6.71,11.29-1.65,19.83-.94,20.93Z"/><path d="M51.66,155.78a5.76,5.76,0,0,1-1.47-.22,46,46,0,0,0-9.37-1c-1.14,0-2.24,0-3.26.15a.22.22,0,0,1-.23-.13.23.23,0,0,1,0-.26c.61-.66,1.24-1.31,1.86-1.94a.26.26,0,0,1,.15-.07c1.32-.11,2.6-.17,3.8-.17a22.57,22.57,0,0,1,7.35,1c1.53.54,2.44,1.24,2.44,1.88C53,155.18,52.88,155.78,51.66,155.78Zm-10.84-1.69a46.39,46.39,0,0,1,9.48,1c1.23.31,2.2.22,2.2-.11s-.56-.89-2.13-1.44a22,22,0,0,0-7.19-1c-1.16,0-2.4.05-3.68.16-.46.46-.92.94-1.38,1.42Q39.41,154.09,40.82,154.09Z"/><path d="M55,149.88a1.44,1.44,0,0,1-.44-.07,21.47,21.47,0,0,0-11.76-.23.23.23,0,0,1-.27-.11.24.24,0,0,1,0-.29c.44-.38.69-.58.69-.58.93-.73,1.85-1.4,2.73-2a.17.17,0,0,1,.1,0,20.56,20.56,0,0,1,3-.23c4.91,0,6.56,2,6.56,2.88A.64.64,0,0,1,55,149.88Zm-7-1.48a25.44,25.44,0,0,1,6.74,1,1,1,0,0,0,.3.06c.2,0,.23-.1.23-.2,0-.62-1.5-2.42-6.1-2.42a22,22,0,0,0-2.92.22c-.81.56-1.67,1.18-2.53,1.84A19,19,0,0,1,48,148.4Z"/><path d="M48.87,161.6a.23.23,0,0,1,0-.46c.36,0,.51-.09.51-.14s0-.11-.18-.29c-.85-.85-4.6-2.45-12.78-2.45a.23.23,0,0,1,0-.46c8.31,0,12.15,1.62,13.11,2.58a.92.92,0,0,1,.32.62C49.85,161.14,49.78,161.6,48.87,161.6Z"/><path d="M32.41,171.07c-.81,0-1.54-.62-2.22-1.89s-1.44-2.58-1.88-2.58l-.08,0-.13,0a5.39,5.39,0,0,1-2,.48,2,2,0,0,1-1.48-.56,3.43,3.43,0,0,1-.67-2.53c.17-4.36,5-6.36,5.16-6.44a5.62,5.62,0,0,1,2.21-.44c4,0,8.11,3.73,9.08,5,.25.34.29.49.25.62s-.27.51-.87.51h0a5.75,5.75,0,0,1-1.91-.48,4.61,4.61,0,0,1,1.22,3.71,1,1,0,0,1-.73.78c-.75.15-1.92-.66-2.67-1.27.33,1,.66,2.19.4,2.58a.39.39,0,0,1-.33.17H35.7a9.13,9.13,0,0,1-2.51-1.89,17.56,17.56,0,0,0-1.56-1.3,5.67,5.67,0,0,0,1.05,1.47,4.32,4.32,0,0,1,1.1,3,.94.94,0,0,1-.46.7A1.87,1.87,0,0,1,32.41,171.07Zm-4.1-4.93c.66,0,1.29,1,2.29,2.82.59,1.09,1.2,1.65,1.81,1.65a1.49,1.49,0,0,0,.69-.2.49.49,0,0,0,.22-.37,3.9,3.9,0,0,0-1-2.65c-1.12-1.29-1.21-1.72-1.15-2a.39.39,0,0,1,.25-.29c.29-.11.74.26,2.07,1.44a13.13,13.13,0,0,0,2.24,1.77,9.13,9.13,0,0,0-.78-3,.24.24,0,0,1,.09-.28.23.23,0,0,1,.29,0c.53.52,2.16,1.92,2.95,1.76a.53.53,0,0,0,.37-.44,4.7,4.7,0,0,0-1.88-4.07.22.22,0,0,1,0-.3A.22.22,0,0,1,37,162a7.55,7.55,0,0,0,2.77.88h0c.22,0,.36,0,.41-.13-.29-.71-4.66-5.08-8.87-5.08a5.16,5.16,0,0,0-2,.4c-.05,0-4.71,2-4.87,6a3,3,0,0,0,.55,2.2,1.51,1.51,0,0,0,1.14.42,5.25,5.25,0,0,0,1.81-.44l.13-.06A.69.69,0,0,1,28.31,166.14Z"/><path d="M93.48,66.33a12.52,12.52,0,0,1,.81,1.37c.22.42.45.92.69,1.47s.46,1.15.64,1.76c.08.31.17.61.25.92a7.54,7.54,0,0,1,.2.89c.06.3.1.58.15.85a5.53,5.53,0,0,1,.09.77c0,1,.07,1.58.07,1.58s-.12-.63-.24-1.56c0-.47-.23-1-.33-1.58a7.54,7.54,0,0,0-.22-.88l-.27-.9c-.16-.61-.4-1.19-.59-1.75s-.4-1.07-.6-1.5-.34-.8-.46-1Z"/><path d="M95.75,65.29s.3,1,.7,2.62l.68,2.69c.24,1,.49,2,.74,3.08l.7,3.1c.22,1,.41,1.92.59,2.71.32,1.59.53,2.66.53,2.66s-.3-1.05-.71-2.62c-.19-.78-.42-1.7-.67-2.69s-.49-2-.74-3.08-.48-2.11-.7-3.1-.41-1.92-.59-2.71C96,66.36,95.75,65.29,95.75,65.29Z"/><path d="M98.86,67l.62,2.6c.17.78.37,1.69.59,2.67s.42,2,.64,3.07.42,2.1.61,3.08.35,1.91.5,2.69c.28,1.58.45,2.64.45,2.64s-.26-1-.62-2.6c-.17-.79-.38-1.7-.59-2.68s-.43-2-.65-3.07-.41-2.09-.6-3.08-.36-1.9-.5-2.69C99,68,98.86,67,98.86,67Z"/><path d="M98.13,87.21a4.48,4.48,0,0,1,.48.34,8,8,0,0,1,1.11,1.07c.19.25.42.51.62.82l.31.47c.1.17.19.35.28.52a11.73,11.73,0,0,1,.52,1.13c.14.39.28.8.4,1.21s.21.83.26,1.24.12.83.14,1.23,0,.78,0,1.15,0,.71-.05,1a5.54,5.54,0,0,1-.09.87c0,.26-.07.48-.1.66-.06.37-.09.57-.09.57s0-.21,0-.58c0-.18,0-.41.05-.66a7.84,7.84,0,0,0,0-.86c0-.32,0-.66,0-1s-.06-.74-.09-1.13-.11-.79-.16-1.2-.18-.8-.27-1.21-.24-.8-.37-1.19a11.26,11.26,0,0,0-.49-1.11c-.08-.17-.17-.34-.26-.51l-.28-.47a8.73,8.73,0,0,0-.57-.84,9.92,9.92,0,0,0-1-1.14C98.3,87.34,98.13,87.21,98.13,87.21Z"/><path d="M103.51,83.59l.69,2.06c.44,1.32,1.08,3.19,1.8,5.45,1.45,4.51,3.35,10.54,5.2,16.59.89,3,1.77,6.07,2.57,8.92s1.51,5.53,2.09,7.83c.28,1.16.54,2.21.75,3.15s.37,1.77.51,2.45c.22,1.36.35,2.14.35,2.14s-.15-.77-.4-2.13l-.57-2.43-.8-3.13c-.6-2.3-1.34-5-2.15-7.81s-1.73-5.88-2.65-8.9c-1.79-6.06-3.65-12.11-5.06-16.63Z"/><path d="M107,83.8l2.15,7.59c1.27,4.57,2.95,10.65,4.64,16.74.42,1.52.78,3.06,1.16,4.57s.75,3,1.1,4.42c.72,2.88,1.39,5.56,2,7.86,1.11,4.6,1.86,7.67,1.86,7.67l-2-7.63c-.59-2.3-1.28-5-2-7.84l-1.14-4.42c-.4-1.5-.76-3-1.2-4.55-1.64-6.1-3.27-12.2-4.5-16.77S107,83.8,107,83.8Z"/><path d="M114.93,100.86s.16.46.42,1.25.64,2,1.07,3.33,1,3,1.44,4.72c.24.86.5,1.76.76,2.67s.54,1.84.75,2.78c.44,1.88.89,3.75,1.28,5.51.2.88.39,1.73.56,2.54s.45,1.54.64,2.23.38,1.33.57,1.89.33,1.05.46,1.44c.26.8.43,1.26.43,1.26s-.19-.45-.48-1.24l-.52-1.43c-.21-.54-.42-1.18-.62-1.87s-.45-1.44-.69-2.23-.41-1.65-.61-2.53c-.4-1.76-.87-3.63-1.32-5.5-.2-.94-.47-1.86-.73-2.77l-.74-2.68c-.25-.87-.46-1.71-.7-2.51s-.45-1.54-.64-2.23Z"/><path d="M120.52,134.2a.52.52,0,0,1,.16.07,2.57,2.57,0,0,1,.44.26,3.68,3.68,0,0,1,.62.51,6,6,0,0,1,.68.78c.23.31.43.67.66,1s.38.81.57,1.25.3.92.45,1.39a15,15,0,0,1,.37,1.47c.1.49.2,1,.31,1.47s.21.95.28,1.42c.14.94.27,1.81.37,2.56s.12,1.38.16,1.82,0,.69,0,.69,0-.25-.09-.68-.18-1.06-.29-1.8-.3-1.61-.46-2.53c-.07-.47-.19-.94-.3-1.42s-.21-1-.33-1.47a13.9,13.9,0,0,0-.34-1.45c-.14-.46-.26-.94-.42-1.38l-.52-1.24c-.21-.37-.4-.73-.6-1a8.29,8.29,0,0,0-.62-.8,4.74,4.74,0,0,0-.57-.55,2.69,2.69,0,0,0-.41-.29Z"/><path d="M123.77,132.65s.34,1,.81,2.44l.79,2.52.88,2.9c.28,1,.56,2,.83,2.91s.49,1.8.7,2.55c.4,1.49.64,2.49.64,2.49s-.33-1-.81-2.44l-.79-2.52-.87-2.9c-.28-1-.57-2-.84-2.91s-.49-1.8-.69-2.55C124,133.65,123.77,132.65,123.77,132.65Z"/><path d="M105.54,115.77a4,4,0,0,1-.75-.08c-.18,0-4.41-1.09-4.93-4.75a8.39,8.39,0,0,1,1.64-6.29,2.32,2.32,0,0,1,1.66-1h.08a.9.9,0,0,1,.6.27,1.74,1.74,0,0,1,.11.18c.42-.91,1.25-2.17,2.61-2.17h.11a.87.87,0,0,1,.73.41c.74,1.13-.29,4.56-.84,6.18a1.7,1.7,0,0,1,1.48.65c.79.79.91,2.88.25,4.46A3,3,0,0,1,105.54,115.77Zm-2.38-11.6a1.9,1.9,0,0,0-1.31.79,7.9,7.9,0,0,0-1.53,5.92c.48,3.34,4.54,4.35,4.58,4.35a2.87,2.87,0,0,0,.64.08,2.59,2.59,0,0,0,2.32-1.8c.64-1.53.45-3.35-.15-4a1.53,1.53,0,0,0-.93-.54.61.61,0,0,0-.51.36.23.23,0,0,1-.43-.17c.55-1.47,1.85-5.52,1.17-6.56a.43.43,0,0,0-.36-.2h-.09c-1.75,0-2.5,2.73-2.5,2.76a.25.25,0,0,1-.28.17.24.24,0,0,1-.18-.27,1.23,1.23,0,0,0-.12-.84.33.33,0,0,0-.26-.1Z"/><path d="M228.71,200l-.07-.2A252.39,252.39,0,0,1,220.36,168c-2.77-14-3.84-25-3-30.83l0-.11.1-.05a2.08,2.08,0,0,1,.85-.16c1,0,2.37.52,3.54,3,2.49,5.31,5.74,27.71,6.39,35.42a178.74,178.74,0,0,0,9.1,18.18l.08.14-.11.11c-.18.2-4.52,4.93-8.4,6.22Zm-11-62.65c-.79,5.84.29,16.68,3,30.55A253.67,253.67,0,0,0,229,199.48c3.4-1.23,7.23-5.19,7.91-5.92a176.13,176.13,0,0,1-9-18.12v-.07c-.65-7.65-3.88-30-6.36-35.29-1.08-2.3-2.31-2.78-3.15-2.78A1.75,1.75,0,0,0,217.75,137.38Z"/><path d="M222.48,147h0c-.39,0-.85-.3-1.41-.92a7.91,7.91,0,0,1-1.35-3.3s-.72-3.26,0-4.2a.8.8,0,0,1,1-.16,2.93,2.93,0,0,1,1.27,1.33,13.9,13.9,0,0,1,1.12,3.87l.08.4c.14.74.26,2.14-.22,2.72A.69.69,0,0,1,222.48,147Zm-2.16-8.26a.26.26,0,0,0-.23.11c-.45.57-.19,2.78,0,3.84a7.62,7.62,0,0,0,1.25,3.1c.61.68,1,.78,1.09.78h0a.26.26,0,0,0,.21-.1,3.8,3.8,0,0,0,.13-2.37l-.08-.4a13.86,13.86,0,0,0-1.08-3.75,2.49,2.49,0,0,0-1.07-1.14A.63.63,0,0,0,220.32,138.78Z"/><path d="M205.92,162.32a2.08,2.08,0,0,1-1.84-.88,2.69,2.69,0,0,1-.24-2.38,3.23,3.23,0,0,1-2.07-.84,1.92,1.92,0,0,1-.5-1.52c.08-1.21.71-1.47,1.23-1.47a2.54,2.54,0,0,1,.82.17,2.91,2.91,0,0,1-.23-1.94,1.93,1.93,0,0,1,1.13-1.18,2.91,2.91,0,0,1,1.16-.26,2.58,2.58,0,0,1,2.4,1.9,2.46,2.46,0,0,1,2.13-1.18,2.4,2.4,0,0,1,1.93.95,1.94,1.94,0,0,1,.2,2.08,2.38,2.38,0,0,1-1.09,1.06,2.41,2.41,0,0,1,1.64,1.17,2,2,0,0,1-.1,1.93,2.65,2.65,0,0,1-2.26,1.1,2.77,2.77,0,0,1-1.88-.7,2.08,2.08,0,0,1-.57,1.26A2.56,2.56,0,0,1,205.92,162.32Zm-3.42-6.8c-.59,0-.89.39-.95,1.2A1.7,1.7,0,0,0,202,158a3.3,3.3,0,0,0,2.09.77h.25l-.13.21a2.32,2.32,0,0,0,.15,2.29,1.78,1.78,0,0,0,1.59.74,2.26,2.26,0,0,0,1.65-.64,1.79,1.79,0,0,0,.5-1.38v-.39l.26.29a2.54,2.54,0,0,0,1.91.84,2.43,2.43,0,0,0,2-1,1.73,1.73,0,0,0,.08-1.66,2.35,2.35,0,0,0-2.12-1.13v-.29a1.92,1.92,0,0,0,1.57-1.07,1.63,1.63,0,0,0-.18-1.78,2.1,2.1,0,0,0-1.7-.83,2.13,2.13,0,0,0-2.06,1.43l-.28.84v-.88a2.32,2.32,0,0,0-2.19-2.12,2.5,2.5,0,0,0-1,.24,1.62,1.62,0,0,0-1,1,3,3,0,0,0,.38,2.09l.29.48-.48-.28A2.56,2.56,0,0,0,202.5,155.52Z"/><path d="M212.8,187.19a2.1,2.1,0,0,1-1.85-.89,2.7,2.7,0,0,1-.24-2.37,3.28,3.28,0,0,1-2.07-.85,1.92,1.92,0,0,1-.5-1.51c.08-1.22.72-1.47,1.24-1.47a2.24,2.24,0,0,1,.81.17,2.93,2.93,0,0,1-.22-2,1.92,1.92,0,0,1,1.12-1.17,2.8,2.8,0,0,1,1.16-.27,2.6,2.6,0,0,1,2.41,1.91,2.46,2.46,0,0,1,2.13-1.18,2.37,2.37,0,0,1,1.92.94,1.93,1.93,0,0,1,.21,2.08,2.37,2.37,0,0,1-1.1,1.07,2.41,2.41,0,0,1,1.64,1.16,2,2,0,0,1-.09,1.94,2.66,2.66,0,0,1-2.26,1.1,2.83,2.83,0,0,1-1.89-.7,2,2,0,0,1-.57,1.26A2.56,2.56,0,0,1,212.8,187.19Zm-3.42-6.81c-.59,0-.9.4-.95,1.21a1.71,1.71,0,0,0,.42,1.3,3.26,3.26,0,0,0,2.09.77h.25l-.13.21a2.29,2.29,0,0,0,.15,2.29,1.78,1.78,0,0,0,1.59.74,2.29,2.29,0,0,0,1.65-.64,1.84,1.84,0,0,0,.5-1.38v-.39l.26.29a2.55,2.55,0,0,0,1.91.83,2.4,2.4,0,0,0,2-1,1.75,1.75,0,0,0,.09-1.67,2.39,2.39,0,0,0-2.13-1.13v-.28a1.9,1.9,0,0,0,1.57-1.07,1.65,1.65,0,0,0-.17-1.78,2.11,2.11,0,0,0-1.7-.84,2.16,2.16,0,0,0-2.07,1.44l-.28.84v-.88a2.3,2.3,0,0,0-2.19-2.12,2.53,2.53,0,0,0-1,.24,1.64,1.64,0,0,0-1,1,3,3,0,0,0,.39,2.09l.29.48-.49-.28A2.44,2.44,0,0,0,209.38,180.38Z"/><path d="M195.89,184.9a2.08,2.08,0,0,1-1.84-.89,2.7,2.7,0,0,1-.24-2.37,3.34,3.34,0,0,1-2.07-.85,1.92,1.92,0,0,1-.5-1.51c.08-1.22.71-1.47,1.23-1.47a2.3,2.3,0,0,1,.82.17,2.87,2.87,0,0,1-.22-1.95,1.9,1.9,0,0,1,1.12-1.17,2.76,2.76,0,0,1,1.16-.27,2.61,2.61,0,0,1,2.41,1.91,2.45,2.45,0,0,1,2.12-1.18,2.37,2.37,0,0,1,1.93.94,1.91,1.91,0,0,1,.2,2.08,2.24,2.24,0,0,1-1.09,1.06,2.44,2.44,0,0,1,1.64,1.17,2,2,0,0,1-.1,1.94,2.64,2.64,0,0,1-2.25,1.1,2.83,2.83,0,0,1-1.89-.7,2.07,2.07,0,0,1-.57,1.26A2.59,2.59,0,0,1,195.89,184.9Zm-3.42-6.81c-.58,0-.89.4-.94,1.21a1.6,1.6,0,0,0,.42,1.29,3.26,3.26,0,0,0,2.08.77h.25l-.12.22a2.3,2.3,0,0,0,.14,2.29,1.78,1.78,0,0,0,1.59.74,2.26,2.26,0,0,0,1.65-.64,1.81,1.81,0,0,0,.5-1.39v-.39l.26.29a2.56,2.56,0,0,0,1.92.84,2.39,2.39,0,0,0,2-1,1.75,1.75,0,0,0,.09-1.66,2.4,2.4,0,0,0-2.13-1.13v-.28a1.92,1.92,0,0,0,1.57-1.08,1.62,1.62,0,0,0-.18-1.77,2.08,2.08,0,0,0-1.7-.84,2.16,2.16,0,0,0-2.06,1.44l-.28.84V177a2.3,2.3,0,0,0-2.19-2.11,2.5,2.5,0,0,0-1,.24,1.62,1.62,0,0,0-1,1,3.1,3.1,0,0,0,.38,2.09l.3.48-.49-.28A2.31,2.31,0,0,0,192.47,178.09Z"/><path d="M187.35,195.88l-.08-1.68c-.12-2.58-.24-5.25-.4-7.87l0-.3.25.17a2.82,2.82,0,0,1,1.06,1.48,2.44,2.44,0,0,1,2.12-1.19,2.38,2.38,0,0,1,1.93.95,1.93,1.93,0,0,1,.21,2.08,2.4,2.4,0,0,1-1.1,1.06,2.45,2.45,0,0,1,1.65,1.16,2,2,0,0,1-.1,1.94,2.66,2.66,0,0,1-2.26,1.1h0a2.84,2.84,0,0,1-1.89-.69,2.06,2.06,0,0,1-1.17,1.69Zm-.17-9.25c.15,2.52.27,5.08.38,7.56l.06,1.22a1.83,1.83,0,0,0,.83-1.65v-.39l.26.29a2.51,2.51,0,0,0,1.91.83,2.4,2.4,0,0,0,2-1,1.73,1.73,0,0,0,.09-1.66,2.35,2.35,0,0,0-2.13-1.13l0-.29a1.9,1.9,0,0,0,1.56-1.07,1.63,1.63,0,0,0-.18-1.78,2.08,2.08,0,0,0-1.7-.83,2.15,2.15,0,0,0-2.06,1.43l-.27.84v-.88A2.29,2.29,0,0,0,187.18,186.63Z"/><path d="M207.9,206.5a3,3,0,0,1-2.67-1.62,2.08,2.08,0,0,1-1.9,1.11,2.42,2.42,0,0,1-2.46-1.75,2.67,2.67,0,0,1,.71-2.28,3.35,3.35,0,0,1-1.59-1.59,2,2,0,0,1,.13-1.59c.33-.65.74-1,1.23-1a1.78,1.78,0,0,1,1.16.58,3,3,0,0,1,.55-1.88,2,2,0,0,1,1.5-.65h.07a2.43,2.43,0,0,1,2.14,1.08,2.72,2.72,0,0,1,.43,1.82,2.39,2.39,0,0,1,1.43-.46,2.44,2.44,0,0,1,2.4,1.82,1.89,1.89,0,0,1-.33,1.69,2.31,2.31,0,0,1-1.71.86,2.38,2.38,0,0,1,1.06,1.71,2,2,0,0,1-.84,1.75A2.18,2.18,0,0,1,207.9,206.5Zm-2.65-2.39.13.37a2.64,2.64,0,0,0,2.52,1.73,1.94,1.94,0,0,0,1.14-.32,1.74,1.74,0,0,0,.73-1.5c0-.5-.33-1.23-1.52-1.87l.12-.25a1.47,1.47,0,0,0,.56.1,2,2,0,0,0,1.55-.74,1.61,1.61,0,0,0,.27-1.45,2.15,2.15,0,0,0-2.12-1.61,2,2,0,0,0-1.57.71l-.59.66.35-.81a2.36,2.36,0,0,0-.29-2,2.16,2.16,0,0,0-1.9-1h-.07a1.64,1.64,0,0,0-1.27.55,3,3,0,0,0-.46,2.07l.08.56-.34-.45s-.59-.78-1.22-.78c-.38,0-.7.28-1,.82a1.64,1.64,0,0,0-.12,1.36,3.25,3.25,0,0,0,1.63,1.52l.23.1-.21.15a2.31,2.31,0,0,0-.75,2.16,2.15,2.15,0,0,0,2.17,1.51,1.82,1.82,0,0,0,1.78-1.24Z"/><path d="M229.37,199.34h-.14a3,3,0,0,1-2.51-1.61,2.09,2.09,0,0,1-1.91,1.11,2.41,2.41,0,0,1-2.45-1.75,2.7,2.7,0,0,1,.7-2.28,3.34,3.34,0,0,1-1.58-1.59,2,2,0,0,1,.13-1.59c.32-.65.74-1,1.22-1a1.8,1.8,0,0,1,1.17.58,3,3,0,0,1,.55-1.88,1.93,1.93,0,0,1,1.49-.65h.08a2.4,2.4,0,0,1,2.13,1.08,2.73,2.73,0,0,1,.44,1.82,2,2,0,0,1,.45-.26l.19-.08v.2a68.9,68.9,0,0,1,0,7.74ZM226.73,197l.13.37A2.64,2.64,0,0,0,229.1,199a66.73,66.73,0,0,0,0-7.35,2.38,2.38,0,0,0-.53.43l-.58.67.34-.82a2.39,2.39,0,0,0-.28-2,2.15,2.15,0,0,0-1.9-.94h-.07a1.63,1.63,0,0,0-1.28.54,3.06,3.06,0,0,0-.46,2.08l.09.56-.34-.45s-.6-.78-1.23-.78c-.37,0-.69.27-1,.82a1.64,1.64,0,0,0-.12,1.36,3.34,3.34,0,0,0,1.62,1.52l.24.09-.21.15a2.33,2.33,0,0,0-.76,2.17,2.16,2.16,0,0,0,2.17,1.51,1.82,1.82,0,0,0,1.78-1.24Z"/><path d="M224,171.17h0a3,3,0,0,1-2.67-1.62,2.08,2.08,0,0,1-1.91,1.12,2.41,2.41,0,0,1-2.45-1.76,2.66,2.66,0,0,1,.7-2.28,3.27,3.27,0,0,1-1.58-1.58,1.91,1.91,0,0,1,.13-1.59c.32-.65.73-1,1.22-1a1.86,1.86,0,0,1,1.17.57,2.88,2.88,0,0,1,.55-1.88,1.9,1.9,0,0,1,1.49-.64h.41l0,.11A34.29,34.29,0,0,0,225,170.81l.08.14-.15.06A2.4,2.4,0,0,1,224,171.17Zm-2.66-2.39.13.37a2.65,2.65,0,0,0,2.53,1.73h0a2.13,2.13,0,0,0,.63-.08,34.6,34.6,0,0,1-3.8-10h-.14a1.63,1.63,0,0,0-1.31.54,3.06,3.06,0,0,0-.46,2.08l.08.55-.33-.45s-.6-.78-1.23-.78c-.37,0-.69.28-1,.82a1.75,1.75,0,0,0-.12,1.37,3.25,3.25,0,0,0,1.63,1.51l.23.1-.2.15a2.33,2.33,0,0,0-.76,2.17,2.16,2.16,0,0,0,2.17,1.5,1.81,1.81,0,0,0,1.78-1.23Z"/><path d="M194.06,168.31a3,3,0,0,1-2.67-1.62,2.06,2.06,0,0,1-1.66,1.1l-.19,0,0-.19a81.49,81.49,0,0,1,2.32-9.56l.06-.16.15.08a2.61,2.61,0,0,1,1.26,2.58,2.36,2.36,0,0,1,1.42-.46,2.44,2.44,0,0,1,2.41,1.82,1.89,1.89,0,0,1-.33,1.69,2.32,2.32,0,0,1-1.71.86,2.42,2.42,0,0,1,1.06,1.71,2,2,0,0,1-.84,1.75A2.28,2.28,0,0,1,194.06,168.31Zm-2.65-2.39.12.37a2.65,2.65,0,0,0,2.53,1.73,1.94,1.94,0,0,0,1.14-.32,1.73,1.73,0,0,0,.72-1.5c0-.5-.33-1.24-1.52-1.87l.13-.25a1.4,1.4,0,0,0,.56.1h0a2,2,0,0,0,1.54-.74,1.64,1.64,0,0,0,.28-1.45,2.16,2.16,0,0,0-2.13-1.61,2.05,2.05,0,0,0-1.57.71l-.58.66.34-.82a2.34,2.34,0,0,0-.86-2.61,82.36,82.36,0,0,0-2.22,9.16,1.83,1.83,0,0,0,1.37-1.2Z"/><path d="M203.73,184.69a8.76,8.76,0,0,1-6.75-2.53c-2.36-2.55-2.58-6.51-2.36-9.38l0-.19,19.16-.35,0,.16c0,.21,1.14,5.06-1.39,8.64-1.43,2-3.72,3.21-6.82,3.55A18.08,18.08,0,0,1,203.73,184.69ZM195,173c-.19,2.77.06,6.48,2.27,8.86,1.77,1.92,4.56,2.69,8.28,2.29,3-.33,5.16-1.46,6.51-3.36,2.17-3.06,1.53-7.24,1.37-8.13Z"/><path d="M198.61,238.87h0c-1.21,0-1.94-.15-2.17-.45a1.07,1.07,0,0,1,0-1.22l0-.07.07,0c.62-.25,1.2-.48,1.78-.68a32.12,32.12,0,0,0,8.95-4.53l.06,0a1.5,1.5,0,0,1,.47-.08c1.27,0,2.21,1.72,2.66,3.32l0,.13-.1.08C207.67,237.76,201.86,238.87,198.61,238.87Zm-1.85-1.4a.61.61,0,0,0,0,.69c.08.1.56.28,1.83.28,3.14,0,8.71-1.05,11.37-3.36-.56-1.93-1.57-3.12-2.49-2.83a33.06,33.06,0,0,1-9.05,4.58C197.89,237,197.34,237.23,196.76,237.47Z"/><path d="M192.61,244.5h0c-1.61,0-2.56-.29-2.83-.87a1.78,1.78,0,0,1,0-1.45c.64-1.65,3.16-3.52,6.76-5l.36-.15-.18.35a.72.72,0,0,0,0,.83c.12.14.67.31,1.89.31,3.19,0,8.89-1.08,11.52-3.47l.17-.16.07.23c.09.34.17.68.22,1,.4,2.4-.08,3-3.9,5A40,40,0,0,1,192.61,244.5Zm3.73-6.93c-3.35,1.43-5.69,3.19-6.28,4.71a1.57,1.57,0,0,0,0,1.24c.21.45,1.12.69,2.57.69a40.6,40.6,0,0,0,14-3.39c3.85-2,4.09-2.53,3.74-4.67,0-.24-.1-.49-.16-.74-2.76,2.33-8.37,3.39-11.54,3.39-.82,0-1.84-.08-2.11-.42A.87.87,0,0,1,196.34,237.57Z"/><path d="M242.06,234.54h0a15.32,15.32,0,0,1-6.43-1.21l-.13-.07,0-.15c.25-2.07.63-3.73.63-3.75l0-.22.22.06s6,1.65,10,2.72c.85.23,1.86.45,2.9.68l.36.08-.24.27c-.45.53-1.59.93-3.46,1.25A23.22,23.22,0,0,1,242.06,234.54ZM236,233a15.16,15.16,0,0,0,6.1,1.1h0a23.22,23.22,0,0,0,3.86-.33,8.94,8.94,0,0,0,2.9-.85c-.9-.2-1.75-.4-2.49-.59l-9.8-2.67C236.42,230.17,236.16,231.47,236,233Z"/><path d="M241.47,239.21h0c-2.57,0-4.47-.2-5.44-1.19a2.58,2.58,0,0,1-.67-2c0-.9.1-1.89.23-2.95l0-.2.18.09a14.91,14.91,0,0,0,6.27,1.18,22.34,22.34,0,0,0,3.87-.34c2.21-.37,3-.82,3.26-1.13l.06-.06.51.11c4,.88,8.59,1.88,8.87,3.56a.7.7,0,0,1-.2.55c-1.27,1.43-9,2.14-13.83,2.27h-.22C243.34,239.18,242.36,239.21,241.47,239.21Zm-5.62-5.86c-.12,1-.19,1.89-.21,2.72a2.28,2.28,0,0,0,.6,1.74c.95,1,3.07,1.11,5.23,1.11h0c.89,0,1.87,0,2.9,0h.23c5.8-.15,12.54-1,13.62-2.17a.42.42,0,0,0,.13-.32c-.26-1.48-4.91-2.5-8.65-3.32l-.35-.08a6.79,6.79,0,0,1-3.37,1.16,22.91,22.91,0,0,1-3.92.34A15.43,15.43,0,0,1,235.85,233.35Z"/><path d="M205.43,138.92h0c-14.8,0-23.71-8.88-25.85-14.48a23.67,23.67,0,0,1-2.26-7.7h0l0-.14a.59.59,0,0,0,0-.13v-.11h0a34.86,34.86,0,0,1,.9-13.17l0-.17h.17c2,0,4,.06,5.86.06,16,0,36.59-1.41,43.53-8.08l.31-.3,0,.43c.44,3.66,5.46,12.25,9,13.49l.13,0v.15a31.44,31.44,0,0,1,0,5.65,40.14,40.14,0,0,1-2.82,8.75c-2.78,6.59-9.71,14.67-26.88,15.64Q206.5,138.92,205.43,138.92Zm-27.7-22.36a24.27,24.27,0,0,0,2.23,7.69c2.12,5.53,10.88,14.24,25.47,14.24h0c.7,0,1.42,0,2.13-.06,17-1,23.78-8.9,26.53-15.4a39.87,39.87,0,0,0,2.78-8.65,31.36,31.36,0,0,0,0-5.4c-3.61-1.4-8.38-9.41-9.11-13.38-7.32,6.53-27.64,7.92-43.53,7.92-1.86,0-3.77,0-5.69-.06a34.13,34.13,0,0,0-.82,13.08l-.1,0Z"/><path d="M236.68,124h0a4.38,4.38,0,0,1-2.52-.69l-.15-.11.08-.16a39.69,39.69,0,0,0,2.78-8.64v-.09l.09-.05a2.59,2.59,0,0,1,3.59.85c1,1.51,1.09,3.9.14,6.4A4.19,4.19,0,0,1,236.68,124Zm-2.12-.93a4.34,4.34,0,0,0,2.12.5h0a3.77,3.77,0,0,0,3.62-2.22c.9-2.36.87-4.6-.09-6a2.14,2.14,0,0,0-2.94-.77A40.4,40.4,0,0,1,234.56,123.05Z"/><path d="M177.67,125.19h0c-1.91,0-3.56-1.48-4.31-3.87a4,4,0,0,1,.32-3.63c.72-1,2-1.44,3.85-1.31h.18l0,.17a24.15,24.15,0,0,0,2.23,7.69l.11.19-.18.11A4.38,4.38,0,0,1,177.67,125.19Zm-.72-8.4a3.47,3.47,0,0,0-2.92,1.15,3.61,3.61,0,0,0-.26,3.25c.69,2.2,2.18,3.57,3.9,3.57h0a3.9,3.9,0,0,0,1.82-.48,24.93,24.93,0,0,1-2.16-7.48Z"/><path d="M163.1,154.48h-.87c-2.88-.08-5.4-1.11-5.85-2.41-.16-.45-.15-1.14.75-1.89a9,9,0,0,1,5.2-1.3,24.12,24.12,0,0,1,6.07.88h.15a3,3,0,0,0,2.1-1.3,2.75,2.75,0,0,1,1.59-1.1c.43,0,.7.08.83.33.26.52-.25,1.54-1.88,3.74C169.2,154.11,166.13,154.48,163.1,154.48Zm-.77-5.18a8.69,8.69,0,0,0-4.94,1.21c-.56.47-.77.94-.6,1.41.39,1.12,2.78,2.05,5.45,2.12h.86c4,0,6.23-.84,7.74-2.89,1.38-1.86,2-3,1.84-3.29-.05-.1-.24-.1-.4-.09-.45,0-.87.49-1.32,1a3.22,3.22,0,0,1-2.64,1.43A24,24,0,0,0,162.33,149.3Z"/><path d="M257.08,141.39A6.29,6.29,0,0,1,253.3,140a8.59,8.59,0,0,1-2.85-7c.21-3.24,1.76-4.1,2.65-4.1a1.07,1.07,0,0,1,.85.36,1.91,1.91,0,0,1,1.46-.6,3.37,3.37,0,0,1,3.09,2.55c2.53-3,5-4.06,6.44-4.06a2.09,2.09,0,0,1,1.22.34.48.48,0,0,1,.25.42c0,.41-.54.79-1.36,1.36a8.47,8.47,0,0,0-3.15,3.24,8.87,8.87,0,0,1,4.3-1.18c1.5,0,2.73.48,2.92,1.14a.46.46,0,0,1-.05.34c-.27.48-1.5.82-3.5,1.34a14.44,14.44,0,0,0-2.44.76c.14.09.42.22.66.34,1.27.62,3.38,1.65,3.28,3.46a.66.66,0,0,1-.73.62h0c-.83,0-2.34-.85-3.68-1.59l-.25-.14A6,6,0,0,1,257.08,141.39Zm-4-12c-.69,0-2,.77-2.22,3.69a8.28,8.28,0,0,0,2.69,6.6,5.81,5.81,0,0,0,3.51,1.3,5.6,5.6,0,0,0,5-3.7l.08-.24.7.38a11.27,11.27,0,0,0,3.47,1.54h0c.26,0,.29-.11.3-.22.08-1.52-1.87-2.47-3-3-.71-.35-1-.51-.93-.8s.75-.58,2.79-1.1c1.11-.29,3.17-.82,3.25-1.16-.1-.34-1-.82-2.51-.82a8.66,8.66,0,0,0-4.57,1.4l-.44.28.12-.51c.46-1.87,2.21-3.11,3.5-4,.52-.37,1.17-.83,1.17-1,0,0,0,0-.06-.07a1.7,1.7,0,0,0-1-.26c-1.43,0-3.85,1.11-6.38,4.23l-.28.35-.09-.45a3,3,0,0,0-2.78-2.62,1.45,1.45,0,0,0-1.26.61,1.5,1.5,0,0,0,.91,1.35,2.71,2.71,0,0,1,1.27,2.5,1.36,1.36,0,0,1-1.08,1.2,1.65,1.65,0,0,1-1.83-.84,3.5,3.5,0,0,1,0-3.34,1.53,1.53,0,0,0,.21-1A.63.63,0,0,0,253.1,129.37Zm.82,1.21c0,.07-.07.15-.1.23a3.06,3.06,0,0,0,0,2.92,1.21,1.21,0,0,0,1.36.64.92.92,0,0,0,.75-.83,2.3,2.3,0,0,0-1-2.07A2.26,2.26,0,0,1,253.92,130.58Z"/><path d="M150.74,142.39h0a4.85,4.85,0,0,1-2.89-1c-.08-.08-1.85-1.68-1.58-3a1.83,1.83,0,0,1,1.37-1.3c3.3-1.17,9.7-1.34,16.48-1.52l3.48-.1c1.66,0,3-.11,4.25-.17,1.43-.06,2.56-.11,3.44-.11,1.74,0,2.7.17,3.09,1.11a3.25,3.25,0,0,1,0,2.73,1.46,1.46,0,0,1-1.07.6,1.3,1.3,0,0,1-.88-.39l-.2-.18c-.38-.35-.68-.62-1-.62s-.78.37-1.38,1.19a2.56,2.56,0,0,1-2.19,1.11,7.84,7.84,0,0,1-3.13-1l-.46-.23a4.43,4.43,0,0,0-1.95-.65A3,3,0,0,0,164,140a4.91,4.91,0,0,1-3.67,1.55,7,7,0,0,1-2.71-.58l-.27-.12a4.72,4.72,0,0,0-1.78-.56,2.61,2.61,0,0,0-1.76.9A4.48,4.48,0,0,1,150.74,142.39Zm24.55-6.9c-.87,0-2,0-3.42.11-1.22.06-2.6.12-4.26.17l-3.49.1c-6.75.18-13.13.35-16.38,1.5-.7.25-1.1.61-1.19,1.08-.24,1.19,1.46,2.75,1.48,2.76a4.52,4.52,0,0,0,2.71.9h0a4.21,4.21,0,0,0,2.88-1.11,2.9,2.9,0,0,1,2-1,4.85,4.85,0,0,1,1.9.58l.26.11a6.65,6.65,0,0,0,2.6.56,4.63,4.63,0,0,0,3.47-1.45,3.19,3.19,0,0,1,2.31-1.2,4.69,4.69,0,0,1,2.08.68l.45.23a7.6,7.6,0,0,0,3,.93,2.28,2.28,0,0,0,2-1c.67-.92,1.15-1.31,1.61-1.31s.76.31,1.18.7l.2.18a1.09,1.09,0,0,0,.69.31,1.14,1.14,0,0,0,.83-.47h0a3,3,0,0,0,0-2.46C177.82,135.71,177.13,135.49,175.29,135.49Z"/><path d="M148.74,148.35l-1.09-7.52.42.31a4.42,4.42,0,0,0,2.67.89,4.13,4.13,0,0,0,2.84-1.09,2.93,2.93,0,0,1,2-1,5,5,0,0,1,1.93.59l.26.12a6.67,6.67,0,0,0,2.57.55,4.52,4.52,0,0,0,3.41-1.43,3.3,3.3,0,0,1,2.37-1.22,4.66,4.66,0,0,1,2.11.69l.45.22a7.35,7.35,0,0,0,3,.93,2.2,2.2,0,0,0,1.9-1c.69-.94,1.19-1.34,1.67-1.34s.79.32,1.23.72l.2.17a1,1,0,0,0,.64.3,1.1,1.1,0,0,0,.77-.44l.31-.42,1.1,7.05Zm-.52-6.58.89,6.12L179,145.08l-.89-5.67a1.31,1.31,0,0,1-.8.3,1.43,1.43,0,0,1-.93-.4l-.2-.19c-.37-.33-.66-.6-.94-.6s-.74.37-1.32,1.16a2.64,2.64,0,0,1-2.25,1.14,7.73,7.73,0,0,1-3.16-1l-.46-.23a4.51,4.51,0,0,0-1.92-.64,2.86,2.86,0,0,0-2.05,1.08,5,5,0,0,1-3.73,1.57,7,7,0,0,1-2.74-.59l-.26-.11c-1.49-.66-2.18-.88-3.47.33a4.57,4.57,0,0,1-3.13,1.21A5,5,0,0,1,148.22,141.77Z"/><g id="text"><path d="M37.25,30.13c.17.48.43,1.16.81,2S38.84,34,39.29,35s.92,2.07,1.41,3.13S41.62,40.17,42,41s.74,1.6,1,2.17.4.88.41.9a1.16,1.16,0,0,1,0,.82,1.23,1.23,0,0,1-.68.62,1.1,1.1,0,0,1-.8,0,1.13,1.13,0,0,1-.56-.58c0-.08-.16-.35-.39-.83s-.52-1.06-.86-1.79-.71-1.53-1.14-2.44-.85-1.82-1.27-2.75-.83-1.83-1.21-2.69-.71-1.64-1-2.32c0,0-.64.13-1.86.35a35.1,35.1,0,0,0-4.8,1.36c-.73.25-1.48.54-2.23.86s-1.48.63-2.17.94l-1.92.87-1.46.7c.25.65.58,1.42,1,2.29s.79,1.78,1.22,2.71.83,1.85,1.25,2.75.78,1.7,1.11,2.43l.82,1.76.34.71a1.21,1.21,0,0,1,0,.82,1.23,1.23,0,0,1-.68.62,1,1,0,0,1-.8,0,1.08,1.08,0,0,1-.56-.57,10.8,10.8,0,0,1-.49-1c-.27-.59-.61-1.31-1-2.19l-1.32-2.89c-.48-1.05-.94-2.09-1.4-3.11s-.86-2-1.23-2.84-.64-1.55-.82-2.06c-.26-.76-.63-1.73-1.11-2.9s-1-2.37-1.52-3.59-1.06-2.38-1.58-3.48-1-2-1.33-2.61a1,1,0,0,1,0-.77,1.3,1.3,0,0,1,.67-.66,1,1,0,0,1,.74,0,1,1,0,0,1,.57.48c.36.62.78,1.43,1.27,2.44s1,2.09,1.49,3.24,1,2.28,1.43,3.4.84,2.08,1.15,2.89l1.5-.71c.58-.28,1.23-.57,1.93-.88s1.43-.63,2.19-.93,1.51-.59,2.25-.84a40.3,40.3,0,0,1,4.16-1.23c1.14-.25,2-.42,2.44-.5-.32-.86-.71-1.84-1.16-2.94s-.93-2.21-1.42-3.31-1-2.13-1.44-3.1-.85-1.75-1.16-2.33a1,1,0,0,1,0-.77,1.28,1.28,0,0,1,.66-.66,1.08,1.08,0,0,1,.75,0,1,1,0,0,1,.57.48A29.75,29.75,0,0,1,33,20c.54,1.14,1.08,2.34,1.63,3.6s1.06,2.48,1.54,3.66S37,29.42,37.25,30.13Z"/><path d="M61,30.3q.36,2.49.84,4.47c.33,1.31.63,2.43.91,3.34s.52,1.62.72,2.12a7.41,7.41,0,0,1,.31.78c0,.08,0,.16.06.22a1.5,1.5,0,0,1,0,.22,1.09,1.09,0,0,1-.65,1,1.8,1.8,0,0,1-.48.08,1,1,0,0,1-1-.64c0-.11-.3-.75-.74-1.92a37.12,37.12,0,0,1-1.39-4.89A17.61,17.61,0,0,1,58.11,38a13.71,13.71,0,0,1-1.86,2.3,8.51,8.51,0,0,1-2,1.51,4.67,4.67,0,0,1-2.12.54A6.92,6.92,0,0,1,46,39.56c-1.31-1.88-2-4.76-2-8.66a11.91,11.91,0,0,1,.72-4.29A12.05,12.05,0,0,1,49.2,21,18.59,18.59,0,0,1,52,19.38a14.75,14.75,0,0,1,2.54-.87,9.33,9.33,0,0,1,1.86-.26,4.44,4.44,0,0,1,2.09.47,5.74,5.74,0,0,1,1.47,1,5.17,5.17,0,0,1,.87,1.09c.18.34.28.52.28.54a.89.89,0,0,1,.12.45,1.34,1.34,0,0,1-.36.84,27.89,27.89,0,0,1,.36,5q0,.64-.06,1.29C61.13,29.4,61.08,29.84,61,30.3Zm-9,9.83a3.14,3.14,0,0,0,1.86-.79,10.07,10.07,0,0,0,2-2.11A16.71,16.71,0,0,0,57.6,34.1a17.43,17.43,0,0,0,1.13-3.8c-.19-1.29-.34-2.65-.44-4.07s-.18-2.94-.2-4.55a1.12,1.12,0,0,1-.45-.89,4,4,0,0,0-.58-.2,2.3,2.3,0,0,0-.66-.08,7.14,7.14,0,0,0-1.5.22,12.11,12.11,0,0,0-2.09.72,14.9,14.9,0,0,0-2.28,1.31,10.53,10.53,0,0,0-2.09,2,10.18,10.18,0,0,0-1.55,2.7,9.2,9.2,0,0,0-.61,3.46,18.71,18.71,0,0,0,.51,4.88,7.28,7.28,0,0,0,1.33,2.78A3.85,3.85,0,0,0,50,39.82,7.48,7.48,0,0,0,52.08,40.13Z"/><path d="M81,14.87a13.09,13.09,0,0,1,2.23,1.78A12.88,12.88,0,0,1,85.06,19a12.63,12.63,0,0,1,1.27,2.74,10,10,0,0,1,.46,3,8.62,8.62,0,0,1-.44,2.78,12.32,12.32,0,0,1-1.27,2.58,15.23,15.23,0,0,1-1.92,2.42,14.88,14.88,0,0,1-2.39,2,12.34,12.34,0,0,1-2.64,1.37,7,7,0,0,1-2.58.53,5,5,0,0,1-2.46-.65v1c0,1.48,0,3,.14,4.71s.2,3.21.31,4.64.2,2.61.3,3.56.14,1.46.14,1.51a1.18,1.18,0,0,1-.28.77,1.22,1.22,0,0,1-.85.36A1.12,1.12,0,0,1,72.1,52a1.32,1.32,0,0,1-.38-.73s0-.52-.14-1.47-.19-2.15-.3-3.58-.21-3-.3-4.7-.14-3.29-.14-4.79c0-1-.06-2.15-.19-3.55s-.26-2.85-.44-4.37-.37-3-.58-4.53-.42-2.86-.61-4.07-.34-2.19-.46-3-.18-1.17-.18-1.23c0-.62.37-1,1.13-1.13a1.16,1.16,0,0,1,.74.25,1.08,1.08,0,0,1,.38.68l.13.77a9,9,0,0,1,3.18-2A10.05,10.05,0,0,1,77.32,14,6.82,6.82,0,0,1,81,14.87ZM84.21,26.8a4.48,4.48,0,0,0,.26-1.05,9.24,9.24,0,0,0,.06-1.05,7.53,7.53,0,0,0-.42-2.49A9.75,9.75,0,0,0,83,20a11.49,11.49,0,0,0-1.53-1.85,10,10,0,0,0-1.69-1.35,4.84,4.84,0,0,0-2.42-.57,8,8,0,0,0-2.62.49,6.65,6.65,0,0,0-2.45,1.53,1.29,1.29,0,0,1-.77.32,1.07,1.07,0,0,1-.48-.12c.13.83.28,1.79.44,2.88s.32,2.24.48,3.44.33,2.45.49,3.71.29,2.47.4,3.63a1.14,1.14,0,0,1,.69.92,1.15,1.15,0,0,0,.1.28,1.07,1.07,0,0,0,.5.49,2.84,2.84,0,0,0,1.41.36,3.81,3.81,0,0,0,1-.12l.86-.24a9.43,9.43,0,0,0,2.16-1.15,14.47,14.47,0,0,0,2-1.69,13,13,0,0,0,1.63-2A9.33,9.33,0,0,0,84.21,26.8Z"/><path d="M103.12,18.71a12.61,12.61,0,0,1,2.24,1.77,12.83,12.83,0,0,1,1.87,2.33,12.17,12.17,0,0,1,1.27,2.74,9.71,9.71,0,0,1,.46,3,8.57,8.57,0,0,1-.44,2.78,12.32,12.32,0,0,1-1.27,2.58,15.75,15.75,0,0,1-1.91,2.42,15.41,15.41,0,0,1-2.4,2,11.89,11.89,0,0,1-2.64,1.37,7,7,0,0,1-2.58.53,5,5,0,0,1-2.46-.65v1q0,2.22.15,4.71c.09,1.67.19,3.21.3,4.64s.21,2.61.3,3.56.14,1.46.14,1.51a1.13,1.13,0,0,1-.28.77,1.22,1.22,0,0,1-.85.36,1.08,1.08,0,0,1-.74-.28,1.26,1.26,0,0,1-.38-.73s-.05-.52-.15-1.47-.19-2.15-.3-3.58-.21-3-.3-4.7S93,42,93,40.54c0-1-.06-2.15-.18-3.55s-.27-2.85-.44-4.37-.37-3-.59-4.53-.42-2.86-.6-4.07-.35-2.19-.47-3-.18-1.17-.18-1.23c0-.61.38-1,1.13-1.12a1.18,1.18,0,0,1,.75.24,1.12,1.12,0,0,1,.38.68l.12.77a9.16,9.16,0,0,1,3.18-2,10.11,10.11,0,0,1,3.39-.62A6.7,6.7,0,0,1,103.12,18.71Zm3.26,11.92a4.06,4.06,0,0,0,.27-1.05,9.24,9.24,0,0,0,.06-1,7.29,7.29,0,0,0-.43-2.49,10.14,10.14,0,0,0-1.1-2.24A11.55,11.55,0,0,0,103.64,22,9.61,9.61,0,0,0,102,20.6,4.83,4.83,0,0,0,99.54,20a7.87,7.87,0,0,0-2.62.48,6.61,6.61,0,0,0-2.46,1.53,1.21,1.21,0,0,1-.77.32,1.07,1.07,0,0,1-.48-.12c.14.83.28,1.79.44,2.88s.33,2.24.49,3.45.32,2.44.48,3.7.3,2.47.4,3.63a1.14,1.14,0,0,1,.69.92,1.31,1.31,0,0,0,.1.29,1.16,1.16,0,0,0,.5.48,2.84,2.84,0,0,0,1.41.36,3.75,3.75,0,0,0,1-.12l.87-.24a9.58,9.58,0,0,0,2.15-1.15,13.9,13.9,0,0,0,2-1.69,13.06,13.06,0,0,0,1.64-2A9.27,9.27,0,0,0,106.38,30.63Z"/><path d="M130.75,13.83a1,1,0,0,1,.63.92.87.87,0,0,1-.12.58l-.29.58-.7,1.56-.92,2c-.33.73-.63,1.45-.91,2.14a7.11,7.11,0,0,0-.43,1.42c0,.37-.1.75-.12,1.16s-.07.55-.09.85a9.49,9.49,0,0,1-.13,1c-.07.4-.17.84-.3,1.33s-.3,1.06-.53,1.69a16.41,16.41,0,0,0-.91,3.39c-.1.88-.18,1.76-.23,2.62v1.09a1.31,1.31,0,0,1-.08.53c0,.3-.07.61-.1.92s-.08.66-.14,1c-.16.92-.3,1.68-.43,2.26s-.28,1.16-.44,1.71-.35,1.33-.52,2.09-.36,1.82-.54,3.15-.31,2.35-.43,3.4-.2,1.94-.26,2.7-.1,1.35-.13,1.78l0,.65a1.18,1.18,0,0,1-.36.73,1.28,1.28,0,0,1-.83.32,1.08,1.08,0,0,1-1.08-1.18,6.5,6.5,0,0,1,.05-.71c0-.45.09-1.06.14-1.83s.15-1.68.27-2.72.26-2.19.42-3.44c.08-.7.18-1.33.28-1.88s.19-1,.28-1.47.19-.83.29-1.19.19-.69.27-1c.16-.51.3-1,.42-1.59s.26-1.25.39-2.09a8.31,8.31,0,0,0,.12-.92c0-.28,0-.56.09-.83-.3-.36-.7-.86-1.21-1.52s-1-1.33-1.49-2.06c-.27-.41-.66-.94-1.16-1.59s-1-1.33-1.56-2l-1.59-2c-.51-.62-.91-1.13-1.21-1.51l-.35-.46a6.24,6.24,0,0,1-.7-1.21c-.3-.6-.75-1.52-1.34-2.78-.25-.49-.5-1-.75-1.52l-.72-1.51c-.24-.48-.46-.91-.67-1.29s-.4-.66-.54-.87a1.77,1.77,0,0,1-.2-.55,1,1,0,0,1,.5-1,.83.83,0,0,1,.55-.2,1,1,0,0,1,1,.46,22.51,22.51,0,0,1,1.28,2.28c.52,1,1,2.11,1.59,3.26.18.37.36.74.53,1.12s.35.73.52,1l.44.88a4.2,4.2,0,0,0,.28.51l.35.42c.29.39.69.9,1.21,1.53s1.05,1.32,1.61,2l1.59,2.07c.5.67.9,1.21,1.19,1.62a7.71,7.71,0,0,0,.52.75l.55.75c.09-.65.21-1.36.36-2.14a20.28,20.28,0,0,1,.77-2.73,18.94,18.94,0,0,0,.73-2.7c.11-.63.18-1.2.24-1.69a12,12,0,0,1,.15-1.42,8.47,8.47,0,0,1,.52-1.81c.28-.69.58-1.41.91-2.16s.64-1.43.93-2.06.54-1.15.75-1.56.31-.66.33-.71a1.05,1.05,0,0,1,.93-.63A.9.9,0,0,1,130.75,13.83Z"/><path d="M159,27.59a9.78,9.78,0,0,1,6.5,3.77q2.35,3.09,3.1,8.88.66,5.09-2.49,8.08a8.81,8.81,0,0,1-3.13,2,14.63,14.63,0,0,1-3.4.89,9.57,9.57,0,0,1-2.67,0l-.51-.12-.46-.12c.08.58-.25,1-1,1.22a1,1,0,0,1-.73-.17,1.18,1.18,0,0,1-.47-.65,5.14,5.14,0,0,1-.23-.7c-.13-.42-.28-1-.48-1.64a6.46,6.46,0,0,1-.84-1,5.41,5.41,0,0,0-.33-.49,1,1,0,0,1-.09-.21,1.19,1.19,0,0,1,0-.22,1,1,0,0,1,.26-.84,13.71,13.71,0,0,1-.46-2c-.13-.77-.3-1.66-.51-2.66-.33-1.5-.66-2.95-1-4.36a36.56,36.56,0,0,1-.69-3.63c-.17-1.27-.39-2.63-.65-4.06s-.53-2.75-.78-4-.47-2.24-.66-3.06-.28-1.25-.29-1.3a1,1,0,0,1,.2-.78,1.45,1.45,0,0,1,.77-.49,1.09,1.09,0,0,1,.8.21,1.14,1.14,0,0,1,.46.69c0,.08.11.53.29,1.34s.41,1.83.66,3,.51,2.54.78,4,.49,2.82.65,4.12l.09.64a14.67,14.67,0,0,1,1.16-2.61,9.54,9.54,0,0,1,1.64-2.1,5.72,5.72,0,0,1,3.28-1.68,4.4,4.4,0,0,1,.62,0A4.64,4.64,0,0,1,159,27.59Zm5.56,19.1a6.9,6.9,0,0,0,1.8-6.16,19.88,19.88,0,0,0-1.26-5.2,10.88,10.88,0,0,0-1.91-3.16A6.48,6.48,0,0,0,161,30.51a10.19,10.19,0,0,0-2.31-.68.72.72,0,0,0-.32,0l-.32,0a2.67,2.67,0,0,0-1.07.39,4,4,0,0,0-.87.68,9.46,9.46,0,0,0-1.27,1.66,10.35,10.35,0,0,0-1,2.35,14.8,14.8,0,0,0-.58,2.92,13.94,13.94,0,0,0,.07,3.34c.27,1.1.56,2.18.86,3.22s.59,2,.87,2.93a1.22,1.22,0,0,1,.57,1,3.63,3.63,0,0,0,.79.46,3.19,3.19,0,0,0,.93.25,6.58,6.58,0,0,0,2,0,12.7,12.7,0,0,0,2.71-.69A7.38,7.38,0,0,0,164.56,46.69Z"/><path d="M187.28,32.41c.45,1.62.92,3.07,1.4,4.33S189.6,39.08,190,40s.72,1.54,1,2,.4.72.4.74a1.28,1.28,0,0,1,.09.22c0,.06,0,.13.05.22a1.07,1.07,0,0,1-.51,1.11,2.17,2.17,0,0,1-.47.14,1,1,0,0,1-1.08-.51c-.07-.1-.4-.7-1-1.8a41.12,41.12,0,0,1-2-4.68,17.09,17.09,0,0,1-1.13,3.06A13.55,13.55,0,0,1,183.8,43,8.24,8.24,0,0,1,182,44.72a4.53,4.53,0,0,1-2,.8,6.9,6.9,0,0,1-6.39-2q-2.31-2.55-3-8.35a11.91,11.91,0,0,1,.18-4.34,12.06,12.06,0,0,1,1.45-3.5,11.77,11.77,0,0,1,2.26-2.68A17.82,17.82,0,0,1,177,22.71a13.88,13.88,0,0,1,2.41-1.17,9.37,9.37,0,0,1,1.8-.5,4.51,4.51,0,0,1,2.14.2,6.28,6.28,0,0,1,1.59.85,5.1,5.1,0,0,1,1,1,3.59,3.59,0,0,1,.35.5.8.8,0,0,1,.18.42,1.35,1.35,0,0,1-.26.89,27.43,27.43,0,0,1,1,4.91c0,.43.09.86.1,1.29S187.28,32,187.28,32.41Zm-7.64,10.87a3,3,0,0,0,1.74-1,9.77,9.77,0,0,0,1.67-2.34,16.55,16.55,0,0,0,1.31-3.31A17.94,17.94,0,0,0,185,32.7c-.35-1.25-.66-2.58-.95-4s-.54-2.9-.77-4.49a1.12,1.12,0,0,1-.55-.83q-.3-.07-.6-.12a2.5,2.5,0,0,0-.67,0,7,7,0,0,0-1.46.41,11.31,11.31,0,0,0-2,1,13.9,13.9,0,0,0-2.1,1.58,10.34,10.34,0,0,0-1.83,2.23,10,10,0,0,0-1.2,2.87,9.43,9.43,0,0,0-.16,3.51,18.26,18.26,0,0,0,1.11,4.77,7.11,7.11,0,0,0,1.67,2.59,3.83,3.83,0,0,0,2,1A7.31,7.31,0,0,0,179.64,43.28Z"/><path d="M207.72,30.74c.3.38.74.89,1.35,1.54l2,2.09c.73.75,1.47,1.52,2.24,2.3l2.09,2.11,1.55,1.57a5.76,5.76,0,0,0,.65.63,1,1,0,0,1,.36.8,1.27,1.27,0,0,1-.32.81,1.33,1.33,0,0,1-.81.32,1.09,1.09,0,0,1-.8-.32l-.73-.73c-.43-.43-1-1-1.61-1.59s-1.35-1.33-2.11-2.11-1.52-1.55-2.26-2.32-1.41-1.47-2-2.11A16.17,16.17,0,0,1,206,32.15c-.59-.72-1.25-1.54-2-2.45s-1.47-1.79-2.25-2.62c-.46.4-.9.8-1.31,1.21l-1.15,1.08a1.37,1.37,0,0,1-.52.33c.16,1.37.33,2.74.52,4.13s.36,2.63.52,3.76.3,2.06.41,2.78.16,1.13.16,1.21a1.1,1.1,0,0,1-.28.75,1.38,1.38,0,0,1-.85.38,1,1,0,0,1-.7-.26,1.19,1.19,0,0,1-.39-.71q0-.12-.18-1.17c-.12-.69-.25-1.57-.4-2.61s-.31-2.23-.49-3.53-.34-2.62-.5-3.95-.29-2.6-.38-3.8-.14-2.26-.14-3.15q0-1.94-.12-4.11c-.08-1.44-.17-2.79-.26-4s-.19-2.29-.27-3.13-.12-1.27-.12-1.32a1,1,0,0,1,.3-.75,1.46,1.46,0,0,1,.83-.38,1.1,1.1,0,0,1,.77.3,1.16,1.16,0,0,1,.36.74c0,.09,0,.54.12,1.37s.17,1.88.26,3.13.18,2.6.26,4.05.12,2.83.12,4.14c0,.49,0,1,.06,1.6s.09,1.21.15,1.91L199.62,26l1.31-1.19c.44-.39.88-.75,1.31-1.08a7.73,7.73,0,0,1,1.09-.75,4.55,4.55,0,0,0,1-.85c.39-.4.77-.82,1.15-1.25s1-1,1.42-1.48a6.19,6.19,0,0,1,1.39-1.05,1.21,1.21,0,0,1,.53-.12,1.14,1.14,0,0,1,1,.56,1.4,1.4,0,0,1,.12.56,1.11,1.11,0,0,1-.15.55,1,1,0,0,1-.46.42,4.55,4.55,0,0,0-1,.85c-.39.4-.77.82-1.14,1.25s-1,1-1.41,1.49a6.13,6.13,0,0,1-1.37,1,11.48,11.48,0,0,0-1,.69c.78.86,1.54,1.75,2.28,2.66S207.13,30,207.72,30.74Z"/><path d="M233.26,42a1.1,1.1,0,0,1,.66.45,1.42,1.42,0,0,1,.18.91,1.13,1.13,0,0,1-.42.67,1.24,1.24,0,0,1-.77.21c-.06,0-.3,0-.73-.07L230.64,44c-.6-.06-1.21-.13-1.85-.22s-1.19-.19-1.63-.3q-5.22-1.2-7.37-4.61t-1.27-8.5A15.87,15.87,0,0,1,220,26a12.28,12.28,0,0,1,2.18-3,9.88,9.88,0,0,1,2.5-1.82,11.62,11.62,0,0,1,2.47-.92,10,10,0,0,1,2-.29,4.5,4.5,0,0,1,3.35,1.08,7.09,7.09,0,0,1,1.8,2.05,9.24,9.24,0,0,1,1.1,3,11.74,11.74,0,0,1,0,4,1.17,1.17,0,0,1,.08.76,1.07,1.07,0,0,1-.39.61,1,1,0,0,1-1.24.54,1,1,0,0,1-.62-.39,17.85,17.85,0,0,0-2.35.16c-.74.08-1.45.14-2.15.17a7,7,0,0,1-1.83-.13,7,7,0,0,0-1.18-.15c-.5,0-1.06-.05-1.66-.05h-1.84c-.63,0-1.19,0-1.69,0a8.19,8.19,0,0,0,.22,4.17,7.43,7.43,0,0,0,1.75,2.8,8.09,8.09,0,0,0,2.54,1.7,15.84,15.84,0,0,0,2.6.87c.41.09.93.18,1.54.27s1.21.15,1.78.2l1.49.14.61.06ZM230,22.31a5.16,5.16,0,0,0-1.48.05,7.49,7.49,0,0,0-2.47.83,10,10,0,0,0-2.69,2.2,11,11,0,0,0-2.21,4.1h1.59c.6,0,1.19,0,1.78,0s1.15,0,1.68.07a9,9,0,0,1,1.26.17,5,5,0,0,0,1.45.06c.6,0,1.2-.08,1.79-.14s.94-.1,1.35-.12l1.22-.08a9,9,0,0,0,0-2.86,7.64,7.64,0,0,0-.75-2.15A5,5,0,0,0,231.31,23,3.27,3.27,0,0,0,230,22.31Z"/><path d="M256.52,26.63a6.35,6.35,0,0,1,1.28.76,4.9,4.9,0,0,1,.76.72,2.45,2.45,0,0,1,.38.6,1.87,1.87,0,0,1,.13.42,1,1,0,0,1-.07.63,1,1,0,0,1-.84.63.93.93,0,0,1-.66-.09,1.13,1.13,0,0,1-.61-.69,3.78,3.78,0,0,0-.32-.33,4,4,0,0,0-1-.61,4.85,4.85,0,0,0-1.82-.2,8.89,8.89,0,0,0-3.14.7A13.62,13.62,0,0,0,247,31.4a12.67,12.67,0,0,0-3.23,4.42l-.24,1.07c-.08.37-.15.74-.22,1.12q-.37,1.83-.81,3.81a18.51,18.51,0,0,1-1.33,3.83,1,1,0,0,1-.65.58,1.13,1.13,0,0,1-.85,0,1.12,1.12,0,0,1-.59-.64,1.15,1.15,0,0,1,0-.87,17.46,17.46,0,0,0,1.23-3.52c.28-1.23.53-2.42.75-3.56s.38-2,.59-2.91a12.44,12.44,0,0,1,.82-2.44c.33-.71.7-1.61,1.11-2.73s.79-2.21,1.13-3.28.64-2,.9-2.78.39-1.21.41-1.26a1.1,1.1,0,0,1,.57-.53,1.34,1.34,0,0,1,.93,0,1,1,0,0,1,.53.54,1.15,1.15,0,0,1,0,.8s-.08.26-.19.64-.25.86-.43,1.43L246.87,27c-.24.72-.49,1.45-.75,2.18a13,13,0,0,1,3-1.85,13.82,13.82,0,0,1,3-.94,9.78,9.78,0,0,1,2.58-.18A5.23,5.23,0,0,1,256.52,26.63Z"/></g><path d="M52,123.77c-2.92,0-6.27-1.48-10-4.4a.23.23,0,0,1-.07-.27.27.27,0,0,1,.24-.15s12.14,1,17.65-6.56a.24.24,0,0,1,.26-.09.22.22,0,0,1,.16.22c0,3.77-1.08,7.1-3.08,9.12A7,7,0,0,1,52,123.77Zm-9.09-4.31c3.38,2.56,6.43,3.85,9.09,3.85a6.6,6.6,0,0,0,4.86-2,12,12,0,0,0,2.94-8.09C54.79,119.36,45.53,119.54,42.87,119.46Z"/><path d="M42.14,119.42h0a17.12,17.12,0,0,1-5.42-2.08.23.23,0,1,1,.25-.39,17,17,0,0,0,5.25,2,.23.23,0,0,1,.19.27A.24.24,0,0,1,42.14,119.42Z"/><path d="M60,112.76h0a.24.24,0,0,1-.18-.28l.54-2.31a.23.23,0,0,1,.28-.18.24.24,0,0,1,.17.28l-.53,2.31A.24.24,0,0,1,60,112.76Z"/><path d="M207,158a1.41,1.41,0,1,1,1.41-1.41A1.41,1.41,0,0,1,207,158Zm0-2.53a1.12,1.12,0,1,0,1.13,1.12A1.12,1.12,0,0,0,207,155.5Z"/><path d="M213.86,182.89a1.41,1.41,0,1,1,1.41-1.4A1.41,1.41,0,0,1,213.86,182.89Zm0-2.52a1.12,1.12,0,1,0,1.12,1.12A1.12,1.12,0,0,0,213.86,180.37Z"/><path d="M197,180.6a1.41,1.41,0,1,1,1.41-1.4A1.41,1.41,0,0,1,197,180.6Zm0-2.52a1.12,1.12,0,1,0,1.12,1.12A1.12,1.12,0,0,0,197,178.08Z"/><path d="M187.36,191.78l-.17,0,0-.13-.12-2.5V189l.13,0,.21,0a1.41,1.41,0,0,1,0,2.82Zm0-2.53c0,.75.08,1.49.11,2.24a1.12,1.12,0,0,0-.11-2.24Z"/><path d="M205.42,202.34a1.41,1.41,0,0,1-1.29-2,1.39,1.39,0,0,1,1.29-.86,1.46,1.46,0,0,1,.55.11,1.41,1.41,0,0,1-.55,2.71Zm0-2.53A1.12,1.12,0,0,0,205,202a1.07,1.07,0,0,0,.43.09,1.12,1.12,0,0,0,.44-2.16A1.32,1.32,0,0,0,205.42,199.81Z"/><path d="M226.91,195.17a1.32,1.32,0,0,1-.55-.11,1.34,1.34,0,0,1-.75-.76,1.35,1.35,0,0,1,0-1.08,1.41,1.41,0,0,1,1.3-.86,1.5,1.5,0,0,1,.55.11,1.41,1.41,0,0,1,.75,1.84A1.39,1.39,0,0,1,226.91,195.17Zm0-2.53a1.13,1.13,0,0,0-1,1.55,1.12,1.12,0,0,0,1,.7,1.11,1.11,0,0,0,1-.69,1.12,1.12,0,0,0-.6-1.47A1,1,0,0,0,226.91,192.64Z"/><path d="M221.51,167h0a1.41,1.41,0,0,1-1.29-1.95,1.39,1.39,0,0,1,1.29-.86,1.56,1.56,0,0,1,.48.08l.07,0,0,.06c.19.58.41,1.18.66,1.81l0,.06,0,.07A1.42,1.42,0,0,1,221.51,167Zm0-2.53a1.12,1.12,0,0,0-.43,2.16,1.16,1.16,0,0,0,1.37-.42c-.23-.58-.44-1.15-.62-1.69A1.13,1.13,0,0,0,221.51,164.48Z"/><path d="M191.58,164.14h0A1.32,1.32,0,0,1,191,164a1.3,1.3,0,0,1-.57-.45l0-.05v-.06c.16-.69.32-1.31.47-1.91v-.06l.06,0a1.44,1.44,0,0,1,1.15,0,1.4,1.4,0,0,1-.54,2.7Zm-.85-.68a1,1,0,0,0,.41.31,1.12,1.12,0,1,0,.87-2.07,1.14,1.14,0,0,0-.85,0C191,162.25,190.88,162.83,190.73,163.46Z"/><path d="M237.21,132.13l.12.07c1.22.77,2.35,3.47,2,4.73a.85.85,0,0,1-.85.67h0c-3.09-.33-3.85-4-3.86-4l.55.38a4.07,4.07,0,0,0,3.34,3.19c.16,0,.34,0,.43-.36a5.33,5.33,0,0,0-1.69-4.17Z"/><path d="M232.85,131a4.18,4.18,0,0,0,3.3,3.22h.1a.69.69,0,0,0,.59-.33,4.09,4.09,0,0,0-.07-3.3,3.29,3.29,0,0,0-1.25-1.86l-.08-.47.1,0c.09,0,.92.23,1.64,2.16a4.44,4.44,0,0,1,0,3.7,1.12,1.12,0,0,1-.94.51h-.16c-3-.41-3.77-3.73-3.78-3.77Z"/><path d="M234.23,123c2,3.41,1.87,6.08,1.33,7.77a1.25,1.25,0,0,1-.62.86h-.06l-.36,0h0a4.15,4.15,0,0,1-4.12-2.5A20.4,20.4,0,0,0,234.23,123Zm-3.5,5.88a3.82,3.82,0,0,0,3.79,2.34h.29c.07,0,.21-.17.34-.58a9.34,9.34,0,0,0-1-6.84A26.39,26.39,0,0,1,230.73,128.9Z"/><path d="M189.22,136.1a4.34,4.34,0,0,1-.66,3.36,1.39,1.39,0,0,1-1.09.67h0a1.33,1.33,0,0,1-.95-.49c-1.57-1.7-.31-4-.22-4.23C186.46,136,187.58,138,189.22,136.1Zm-2.79.06a3.47,3.47,0,0,0,.4,3.18.72.72,0,0,0,.64.36,1,1,0,0,0,.74-.49,3.71,3.71,0,0,0,.68-2.52A1.72,1.72,0,0,1,186.43,136.16Z"/><path d="M206.44,134.51c-5,0-6.43-5-6.44-5a.22.22,0,0,1,.15-.27.21.21,0,0,1,.26.15c.06.22,1.54,5.41,7.1,4.64a4.83,4.83,0,0,0,4.3-5.05.22.22,0,0,1,.43,0s.15,4.84-4.67,5.5A9,9,0,0,1,206.44,134.51Z"/><path d="M212.6,129.13a3.41,3.41,0,0,1-2.85-1.95.22.22,0,0,1,.1-.29.22.22,0,0,1,.29.11,2.76,2.76,0,0,0,3.76,1.4.21.21,0,1,1,.17.39A3.65,3.65,0,0,1,212.6,129.13Z"/><path d="M240,122l.26-.68c.9-2.36.87-4.6-.09-6a2.15,2.15,0,0,0-3-.73l-.43.27.11-.5a31.25,31.25,0,0,0,0-5.39c-3.61-1.4-8.38-9.41-9.11-13.38-7.32,6.53-27.64,7.92-43.53,7.92-1.86,0-3.77,0-5.69-.06a34.13,34.13,0,0,0-.82,13.08l0,.33-.32-.09a10.83,10.83,0,0,1-6.26-5.54c-2.18-4.39-1.87-10.39.93-17.86a41.92,41.92,0,0,1,38.07-23.12c1.29,0,2.61,0,3.92.15,11.34,1.08,18.54,7.52,19.85,10.72,2.25,0,5.26,1.8,8.07,4.79,4.11,4.35,8.33,12,7.84,20.44-1.2,9.46-6,12.9-8.87,15Zm-1.68-8.19a2.71,2.71,0,0,1,2.2,1.27c.95,1.38,1.08,3.49.36,5.75,2.83-2,7.37-5.44,8.52-14.52.49-8.28-3.67-15.82-7.72-20.11-2.75-2.91-5.66-4.65-7.79-4.65h-.26l0-.14c-1-2.66-8-9.48-19.54-10.58-1.3-.1-2.61-.15-3.89-.15a41.49,41.49,0,0,0-37.68,22.87c-2.74,7.32-3.06,13.21-.94,17.48a10.41,10.41,0,0,0,5.69,5.22,35,35,0,0,1,.91-13.07l0-.17h.17c2,0,4,.06,5.86.06,16,0,36.59-1.41,43.53-8.08l.31-.3,0,.43c.44,3.66,5.46,12.25,9,13.49l.13,0v.15a37.45,37.45,0,0,1,.07,5.21A2.49,2.49,0,0,1,238.36,113.82Z"/><path d="M254.86,134.84h0a1.69,1.69,0,0,1-1.44-.89,3.5,3.5,0,0,1,0-3.34,1.45,1.45,0,0,0,.2-1,.22.22,0,0,1,.13-.25.21.21,0,0,1,.27.1.2.2,0,0,1,0,.08.19.19,0,0,1,.08.18,1.51,1.51,0,0,0,.91,1.41,2.71,2.71,0,0,1,1.27,2.5,1.36,1.36,0,0,1-1.08,1.2A1.74,1.74,0,0,1,254.86,134.84Zm-.94-4.26c0,.07-.07.15-.1.23a3.06,3.06,0,0,0,0,2.92,1.27,1.27,0,0,0,1.07.68h0a1.55,1.55,0,0,0,.29,0,.92.92,0,0,0,.75-.83,2.3,2.3,0,0,0-1-2.07A2.26,2.26,0,0,1,253.92,130.58Z"/><path d="M142.24,150.8l-.21-2.08.21,0,40.09-4,.21,2.08-.22,0Zm.26-1.7.12,1.23,39.45-4-.13-1.23Z"/><path class="cls-38" d="M233.14,176.92h0c-2,0-4.5-.5-5.27-1.43l-.78-.92.87.5c.72-1.07,4.53-6.56,7.39-6.56h.1a1.41,1.41,0,0,1,1.1.64c1,1.35,1,4.61.54,6.25C236.72,176.77,234.21,176.92,233.14,176.92Zm-2.6-.69a12.66,12.66,0,0,0,2.6.26h0c2,0,3.33-.46,3.53-1.2.41-1.53.44-4.65-.47-5.88a1,1,0,0,0-.77-.47h-.08c-1.88,0-4.33,2.77-5.82,4.71a5.85,5.85,0,0,1,3.06-1.62h.07c.52,0,.84.45.82,1.12A3.33,3.33,0,0,1,230.54,176.23Zm-2.16-.93a4.05,4.05,0,0,0,1.86.51h0a2.87,2.87,0,0,0,2.81-2.68c0-.25,0-.67-.41-.68h0C231.26,172.45,229,174.62,228.38,175.3Z"/><path class="cls-38" d="M237.2,183.1l-.12-.08c-.27-.18-6.76-4.44-8.67-7.24l-.41-.59.67.27c.35.15,8.73,3.61,10.4,4.73l.15.1-.07.17a7.55,7.55,0,0,1-1.84,2.56Zm-7.95-6.93c2.14,2.5,7.1,5.85,7.94,6.41a7.15,7.15,0,0,0,1.49-2.13C237.06,179.47,231.32,177,229.25,176.17Z"/><path class="cls-38" d="M162.19,136.28a6.92,6.92,0,0,1-1-.07l-.54-.07a5.56,5.56,0,0,1-2.11-.69,1.93,1.93,0,0,1-.38-2.63c.74-1.45,2.24-3.89,3.91-3.89a2.15,2.15,0,0,1,1.61.85,6.19,6.19,0,0,1,1.53,4.74C165,135.65,163.89,136.28,162.19,136.28Zm-.12-6.92c-1.06,0-2.34,1.33-3.53,3.66-.35.7-.48,1.61.24,2.07a5.17,5.17,0,0,0,1.94.62l.52.08a7.94,7.94,0,0,0,.95.06c1,0,2.34-.25,2.61-1.43a5.82,5.82,0,0,0-1.45-4.36A1.73,1.73,0,0,0,162.07,129.36Z"/><path class="cls-38" d="M162.66,131.28a.51.51,0,0,1,.42.39.55.55,0,0,1,0,.22.39.39,0,0,1-.06.19.67.67,0,0,1-.15.13,1.23,1.23,0,0,1-.1-.16.9.9,0,0,1-.11-.27,1.63,1.63,0,0,1,0-.31Z"/><path class="cls-38" d="M160.37,132.64s0,.11,0,.21a.63.63,0,0,1,0,.24.22.22,0,0,1-.05.08s-.06.06-.08.1l-.12.16a.33.33,0,0,1-.2-.09.35.35,0,0,1-.1-.19.36.36,0,0,1,0-.23.41.41,0,0,1,.29-.28A.47.47,0,0,1,160.37,132.64Z"/><path class="cls-38" d="M162.88,133.86a.58.58,0,0,1,.13.23.69.69,0,0,1,0,.52.62.62,0,0,1-.47.36.35.35,0,0,1-.27-.1.81.81,0,0,0,.13-.2,1.32,1.32,0,0,1,.1-.3,1.2,1.2,0,0,1,.23-.34A1.27,1.27,0,0,1,162.88,133.86Z"/><path d="M189.77,134.75c-.27.91-.78,1.94-1.76,1.94a1.64,1.64,0,0,1-.42-.06c-1.68-.43-1.56-3.16-1.41-4.41l-.39-.36c-.17,1.14-.5,4.63,1.69,5.19a2.49,2.49,0,0,0,.53.07h0c1.2,0,1.82-1.12,2.14-2.13Z"/><path class="cls-38" d="M199.55,150v.18l.17,0a41.12,41.12,0,0,0,6.37.46,50.38,50.38,0,0,0,8.22-.66l.14,0,2.47-12.84-.46.13-2.37,12.34a51.85,51.85,0,0,1-8,.62,40.67,40.67,0,0,1-6.13-.43c0-2.57,1.56-8,2.58-11.15l-.44,0C200.94,142.22,199.42,147.48,199.55,150Z"/><path class="cls-38" d="M228.24,175.31v-.06l0,0c-3.78-4.12-11.89-21.59-9-38.76l-.46.15c-2.78,17.19,5.31,34.63,9.12,38.86,1.44,6.93,1.51,25,1.51,26.54-.65.54-6,4.57-20.43,5.8-1.71.15-3.38.22-4.95.22-10.83,0-14.83-3.51-15.27-3.93-6.2-33.17,9.33-60.06,12.82-65.56l-.48-.05c-3.73,5.94-18.94,32.76-12.74,65.76v.06l.05,0c.15.17,3.94,4.11,15.62,4.11,1.59,0,3.26-.07,5-.22,15.55-1.33,20.55-5.79,20.75-6l.07-.06v-.09C229.77,201.9,229.76,182.51,228.24,175.31Z"/><path d="M207.63,142.71c1.79.15,2.8-2.25,3.35-4.4l-.31.05c-.51,1.91-1.44,4.2-3,4.06a1.44,1.44,0,0,1-1.06-.56,5.15,5.15,0,0,1-.7-3.16h-.29a5.45,5.45,0,0,0,.77,3.35A1.75,1.75,0,0,0,207.63,142.71Z"/><path d="M211.87,138.18c-.68,2.3-2,5.27-4.29,5a2.47,2.47,0,0,1-1.76-1,5.51,5.51,0,0,1-.72-3.47,2.8,2.8,0,0,0-.29,0,5.82,5.82,0,0,0,.78,3.64,2.76,2.76,0,0,0,2,1.09l.34,0c2.29,0,3.6-2.88,4.29-5.34Z"/><path d="M201.24,208.21c-.48,0-.88-.05-1.21-.08L207,232.7a.58.58,0,0,0,.55.42l.15,0a.58.58,0,0,0,.4-.71Z"/><path d="M237.07,230l-9.93-26.49-1,.48L236,230.4a.56.56,0,0,0,.53.37l.21,0A.58.58,0,0,0,237.07,230Z"/><path d="M54.57,128.51c-.51,2.51-1.63,5.63-4.13,5.46-3-.21-3.9-3.79-4.18-6l.23-.06-.71-.1h0c.26,2.38,1.2,6.42,4.63,6.66h.23c2.68,0,3.87-3.3,4.39-5.9Z"/><path d="M104.51,121.9l-7.6-4.8a.22.22,0,0,0-.21,0,.25.25,0,0,0-.14.16c0,.15-3.82,14.72-16.37,15.33-.88,0-1.77.07-2.63.07a45.57,45.57,0,0,1-19.64-4.31l-.92.1a46.55,46.55,0,0,0,20.56,4.67c.87,0,1.76,0,2.65-.06,11.86-.58,16.09-13.23,16.72-15.38l7.16,4.52c-.81,1.53-6.61,12-16.39,16.41a26.6,26.6,0,0,1-11,2.26h0a31.23,31.23,0,0,1-10.39-1.75.23.23,0,0,0-.23,0,.24.24,0,0,0-.09.22l1.52,10.77-5,.46,0,.46,5.21-.48a.24.24,0,0,0,.16-.09.23.23,0,0,0,0-.18l-1.49-10.62a32.77,32.77,0,0,0,10.19,1.64A27,27,0,0,0,87.89,139c10.65-4.79,16.65-16.68,16.71-16.8A.25.25,0,0,0,104.51,121.9Z"/><path d="M36.08,141.8a.23.23,0,0,0-.11-.2.26.26,0,0,0-.23,0c-.05,0-5,2.64-8.82,5.21a4.42,4.42,0,0,0-2.27,2.81c-.34,1.91,1.26,4.13,4.18,8.08-3,.93-5,3.18-7.37,5.8-7.3-12.82-7.86-18.3,3-25.25a92.65,92.65,0,0,1,11.11-6v-.51a93.26,93.26,0,0,0-11.36,6.1c-9.68,6.22-11.58,11.1-3,26.15a.2.2,0,0,0,.17.11h0a.23.23,0,0,0,.17-.08l.09-.1c2.43-2.71,4.52-5.06,7.59-5.9a.19.19,0,0,0,.16-.14.24.24,0,0,0,0-.22c-2.87-3.89-4.6-6.23-4.3-8a4.08,4.08,0,0,1,2.08-2.5c3.26-2.17,7.27-4.37,8.44-5l.15,11.08a.21.21,0,0,0,.08.17.19.19,0,0,0,.17.06l2.53-.23.59-.52-2.91.27Z"/><path d="M54.56,128.51C54.07,131,53,134,50.64,134h-.2c-3-.21-3.93-3.89-4.19-6.14l-.86-.13c-.88.31-3.42,1.24-6.72,2.65l0,.49c3.82-1.64,6.64-2.64,7.09-2.8.3,2.42,1.3,6.16,4.6,6.39,2.85.2,4.09-3.22,4.62-5.89Z"/><path d="M71.12,156c-2-9.32-5.87-23.35-6.36-24.83s-4-1.83-4.39-1.87a.27.27,0,0,0-.19.08.22.22,0,0,0-.06.19c0,.1,1.55,9.5,1.86,13.68a6.25,6.25,0,0,1-.08,2.67l.18.56h0c.54-.62.47-1.55.34-3.31-.28-3.72-1.55-11.71-1.81-13.36,1.14.13,3.37.58,3.69,1.52.49,1.47,4.36,15.47,6.34,24.78S77,192.35,76.25,201.8a65.81,65.81,0,0,1-24.64,4.56c-10,0-19.12-2.14-23.73-5.58,1.55-8.86.82-3.32,2.25-13.52l-.46,0C28.23,197.45,29,192,27.4,200.84a.22.22,0,0,0,.09.22c4.65,3.56,13.89,5.77,24.12,5.77a66.21,66.21,0,0,0,25-4.65.23.23,0,0,0,.14-.2C77.49,192.61,73.15,165.52,71.12,156Z"/><path d="M61,144a5.48,5.48,0,0,0-4.27-1.76c-3.41,0-7.91,2.14-13.38,6.38A73.39,73.39,0,0,0,34.14,158l.45.18a74.68,74.68,0,0,1,9-9.25c5.38-4.16,9.79-6.28,13.09-6.28a5.06,5.06,0,0,1,3.93,1.61c1.39,1.53,2,4.11,1.68,7.25-.75,7.6-9.5,19.69-21.79,30.09-4.15,3.51-8,5.37-11,5.37h0a5.42,5.42,0,0,1-4.28-1.85,8.08,8.08,0,0,1-1.39-6.55,41.36,41.36,0,0,1,4.85-11.95l-.44-.17a41.87,41.87,0,0,0-4.86,12,8.51,8.51,0,0,0,1.49,6.94,5.84,5.84,0,0,0,4.63,2h0c3.16,0,7.07-1.9,11.32-5.49C53.37,171.35,62,159.42,62.75,151.59,63.07,148.31,62.43,145.61,61,144Z"/><path d="M43.08,147.82c-1.77,0-2.61-.24-2.66-.78-.61-4.44-1.54-17.07-1.55-17.2a.21.21,0,0,0-.08-.16.27.27,0,0,0-.17-.06,16.41,16.41,0,0,0-2.69.48c-.76.25-.72,1.07-.61,3.8.06,1.48.14,3.51.14,6.35,0,3-.65,9.51-1.65,17.58l.44.22c1-8.16,1.68-14.78,1.68-17.8,0-2.85-.09-4.89-.15-6.37-.09-2.26-.13-3.2.29-3.34a14.64,14.64,0,0,1,2.35-.43c.14,1.77,1,12.88,1.54,17,.09,1,1.55,1.2,3.12,1.2l1.2,0,.57-.5C44.2,147.8,43.6,147.82,43.08,147.82Z"/><path d="M38.77,170.34a20.72,20.72,0,0,0-5.27-1l0,.47a20,20,0,0,1,5.06,1c1.75.63,2.39,1.33,2.39,1.64s-1.09.43-2.39.05a44.16,44.16,0,0,0-11.41-1.24h-.91c.23-.5.44-1,.66-1.4,1.28-.1,2.53-.15,3.7-.15h.16l-.28-.47c-1.19,0-2.45.06-3.75.17a.21.21,0,0,0-.19.13c-.28.57-.57,1.18-.87,1.87a.25.25,0,0,0,0,.22.23.23,0,0,0,.19.11h0c3.18-.06,8.6.06,12.54,1.21a6.23,6.23,0,0,0,1.7.29c1.19,0,1.28-.6,1.28-.79C41.46,171.73,40.43,170.94,38.77,170.34Z"/><path d="M45.67,206.36,42.93,237l-7.24-.72L38,205.13l-.46-.1-2.37,31.41a.23.23,0,0,0,.21.25l7.7.77h0a.25.25,0,0,0,.15-.05.26.26,0,0,0,.09-.16l2.75-30.85Z"/><path d="M70.2,204.1l.88,30-5.32,1.06-2.41-29.57-.46.08,2.43,29.79a.22.22,0,0,0,.09.17.23.23,0,0,0,.14,0h0l5.77-1.15a.25.25,0,0,0,.19-.24L70.66,204Z"/><path d="M105.27,101c.09.53.16,1,.22,1.54l.23-.15c0-.47-.1-.94-.18-1.43-.11-.73-.22-1.49-.37-2.25s-.28-1.54-.46-2.3-.37-1.54-.57-2.29-.43-1.48-.63-2.19c-.44-1.41-.9-2.71-1.32-3.81s-.83-2-1.11-2.63-.46-1-.46-1,.63,1.44,1.4,3.67c.41,1.11.81,2.42,1.23,3.83.2.71.43,1.44.61,2.19s.38,1.51.54,2.28.34,1.52.49,2.28S105.16,100.28,105.27,101Z"/><path d="M119.73,132a6.36,6.36,0,0,1-1.32.15c-2.32,0-3.37-1.58-4.23-3.95-.42-1.16-2.33-5.69-4.75-11.42-.45-1.06-.92-2.17-1.39-3.31l-.3.51c.43,1,.86,2,1.26,3,2.42,5.73,4.32,10.25,4.74,11.4.81,2.21,1.93,4.26,4.67,4.26a7.14,7.14,0,0,0,1.47-.17Z"/><path d="M125.14,125.15c-1.89-4.24-9.47-22.46-12.55-30.31-.72-1.83-1.25-3.47-1.71-4.91-1.54-4.86-2.41-7.5-7.61-6.67-.14,0-3.41.54-4.83,2.85a4.93,4.93,0,0,0-.29,4.27c.72,2.21,3,7.91,5.66,14.2l.32-.43C101.56,98,99.3,92.41,98.59,90.23a4.49,4.49,0,0,1,.25-3.88c1.3-2.12,4.47-2.63,4.5-2.63a10.53,10.53,0,0,1,1.67-.15c3.36,0,4.09,2.31,5.43,6.5.46,1.45,1,3.09,1.72,4.94,3.08,7.85,10.66,26.09,12.56,30.33.79,1.75,1,2.91.6,3.76a3.82,3.82,0,0,1-2.13,1.72l.22.41a4.23,4.23,0,0,0,2.34-1.94C126.18,128.31,126,127,125.14,125.15Z"/><path d="M100.91,84.29c-.75-1.43-5-9.58-7-13.42-.91-1.77-1.21-3-.92-3.75s1.11-1,2.07-1.38l.06,0a3.14,3.14,0,0,1,1.13-.22c1.63,0,2.85,1.55,3.63,4.61.93,3.63,3.12,10.83,3.88,13.3h.48c-.71-2.33-3-9.73-3.91-13.42C99.48,66.7,98.11,65,96.24,65a3.85,3.85,0,0,0-1.29.24l-.06,0c-1,.37-2,.73-2.35,1.64s-.05,2.21.94,4.14c2,3.86,6.31,12.08,7,13.44Z"/><g id="pencilOutline"><polyline class="cls-2" points="396.18 -5.44 335.29 61.87 309.59 38.62 370.48 -28.69"/><polygon class="cls-2" points="335.29 61.87 281.75 95.23 309.59 38.62 335.29 61.87"/><path class="cls-2" d="M312.82,75.87s6.85-7.32-.71-14.16-14.21.67-14.21.67L281.75,95.23Z"/><polyline class="cls-2" points="398.88 -24.14 327.47 54.79 317.41 45.7 389 -33.44"/></g></g></svg>